SplineFontDB: 3.2
FontName: michuhu_mono
FullName: michuhu_mono
FamilyName: michuhu_mono
Weight: Regular
Copyright: Copyright (c) 2020, Matthew
UComments: "2020-7-9: Created with FontForge (http://fontforge.org)"
Version: 001.000
DefaultBaseFilename: michuhu
ItalicAngle: 0
UnderlinePosition: -102
UnderlineWidth: 51
Ascent: 819
Descent: 205
InvalidEm: 0
LayerCount: 2
Layer: 0 0 "Back" 1
Layer: 1 0 "Fore" 0
XUID: [1021 208 -1550797864 13806809]
StyleMap: 0x0000
FSType: 0
OS2Version: 0
OS2_WeightWidthSlopeOnly: 0
OS2_UseTypoMetrics: 1
CreationTime: 1594294544
ModificationTime: 1595850291
OS2TypoAscent: 0
OS2TypoAOffset: 1
OS2TypoDescent: 0
OS2TypoDOffset: 1
OS2TypoLinegap: 92
OS2WinAscent: 0
OS2WinAOffset: 1
OS2WinDescent: 0
OS2WinDOffset: 1
HheadAscent: 0
HheadAOffset: 1
HheadDescent: 0
HheadDOffset: 1
OS2Vendor: 'PfEd'
MarkAttachClasses: 1
DEI: 91125
Encoding: UnicodeBmp
UnicodeInterp: none
NameList: AGL For New Fonts
DisplaySize: -72
AntiAlias: 1
FitToEm: 0
WinInfo: 57414 14 7
BeginPrivate: 0
EndPrivate
AnchorClass2: "central""" 
BeginChars: 65536 79

StartChar: uniE000
Encoding: 57344 57344 0
Width: 700
VWidth: 0
InSpiro: 1
Flags: HW
LayerCount: 2
Fore
SplineSet
550 816 m 1
 486 645 l 1
 424.037109375 645.059570312 362.377929688 620.681640625 317.208007812 578.265625 c 0
 272.038085938 535.850585938 243.833984375 475.84375 240 414 c 0
 235.697265625 344.586914062 262.47265625 273.825195312 311.649414062 224.649414062 c 0
 360.825195312 175.47265625 431.586914062 148.697265625 501 153 c 1
 550 0 l 1
 444.532226562 2.0888671875 340.530273438 46.98828125 266.681640625 122.314453125 c 0
 192.83203125 197.641601562 150 302.51171875 150 408 c 0
 150 513.48828125 192.83203125 618.358398438 266.681640625 693.685546875 c 0
 340.530273438 769.01171875 444.532226562 813.911132812 550 816 c 1
  Spiro
    550 816 v
    486 645 v
    240 414 o
    501 153 v
    550 0 v
    150 408 o
    0 0 z
  EndSpiro
EndSplineSet
EndChar

StartChar: uniE001
Encoding: 57345 57345 1
Width: 700
VWidth: 0
InSpiro: 1
Flags: HW
LayerCount: 2
Fore
SplineSet
389.19921875 369.6640625 m 1
 364.881835938 369.18359375 340.696289062 362.771484375 319.357421875 351.100585938 c 0
 298.018554688 339.428710938 279.529296875 322.501953125 266.319335938 302.080078125 c 0
 252.866210938 281.282226562 244.950195312 256.797851562 244.571289062 232.032226562 c 0
 244.19140625 207.265625 251.526367188 182.291992188 266.030273438 162.213867188 c 0
 280.53515625 142.135742188 302.205078125 127.25390625 326.271484375 121.393554688 c 0
 350.337890625 115.534179688 376.41796875 118.826171875 398.5234375 130 c 0
 417.224609375 139.453125 433.002929688 154.288085938 444.555664062 171.770507812 c 0
 456.109375 189.25390625 463.528320312 209.267578125 467.72265625 229.798828125 c 0
 476.110351562 270.862304688 472.326171875 313.365234375 467.5234375 355 c 0
 460.001953125 420.194335938 452.0234375 485.388671875 440.5234375 550 c 0
 425.359375 635.1953125 397.936523438 718.732421875 353.5234375 793 c 1
 482.5234375 820 l 1
 499.3984375 713.350585938 522.303710938 607.7734375 542.798828125 501.759765625 c 0
 553.938476562 444.138671875 563.870117188 386.056640625 565.947265625 327.405273438 c 0
 568.024414062 268.754882812 561.776367188 209.012695312 539.727539062 154.624023438 c 0
 521.857421875 110.543945312 493.266601562 70.32421875 455.080078125 41.9658203125 c 0
 416.893554688 13.607421875 369.12890625 -2.201171875 321.615234375 0 c 0
 280.709960938 1.89453125 240.525390625 17.10546875 208.651367188 42.8134765625 c 0
 176.77734375 68.521484375 153.421875 104.42578125 142.030273438 143.759765625 c 0
 130.639648438 183.092773438 131.094726562 225.612304688 142.197265625 265.028320312 c 0
 153.298828125 304.444335938 174.874023438 340.741210938 203.5234375 370 c 0
 247.659179688 415.075195312 308.625976562 443.1328125 371.5234375 448 c 1
 389.19921875 369.6640625 l 1
  Spiro
    389.199 369.664 v
    266.319 302.08 o
    398.523 130 o
    467.523 355 o
    440.523 550 o
    353.523 793 v
    482.523 820 v
    542.799 501.76 o
    539.727 154.624 o
    321.615 0 o
    203.523 370 o
    371.523 448 v
    0 0 z
  EndSpiro
EndSplineSet
EndChar

StartChar: uniE002
Encoding: 57346 57346 2
Width: 700
VWidth: 0
InSpiro: 1
Flags: HW
LayerCount: 2
Fore
SplineSet
44.6953125 254.975585938 m 1024
  Spiro
    44.6963 254.976 {
    0 0 z
  EndSpiro
496.280273438 794.624023438 m 1
 474.8828125 734 l 1
 457.526367188 747.030273438 436.740234375 755.44921875 415.208984375 758.168945312 c 0
 393.676757812 760.889648438 371.44921875 757.905273438 351.397460938 749.6015625 c 0
 331.345703125 741.297851562 313.516601562 727.693359375 300.211914062 710.546875 c 0
 286.907226562 693.399414062 278.159179688 672.75 275.096679688 651.263671875 c 0
 272.03125 629.755859375 274.669921875 607.4609375 282.672851562 587.263671875 c 0
 290.674804688 567.06640625 304.021484375 549.013671875 320.986328125 535.442382812 c 0
 337.951171875 521.87109375 358.493164062 512.8125 379.954101562 509.438476562 c 0
 401.416015625 506.064453125 423.74609375 508.383789062 444.056640625 516.095703125 c 1
 447.12890625 0 l 1
 367.256835938 0 l 1
 384.8828125 440 l 1
 332.923828125 442.868164062 282.561523438 467.956054688 248.97265625 507.702148438 c 0
 215.383789062 547.448242188 199.045898438 601.290039062 204.8828125 653 c 0
 208.490234375 684.952148438 220.293945312 715.944335938 238.856445312 742.200195312 c 0
 257.418945312 768.456054688 282.701171875 789.919921875 311.62109375 803.975585938 c 0
 340.541015625 818.03125 373.038085938 824.649414062 405.15234375 823.022460938 c 0
 437.265625 821.396484375 468.928710938 811.529296875 496.280273438 794.624023438 c 1
  Spiro
    496.28 794.624 v
    474.883 734 v
    275.096 651.264 o
    444.056 516.096 v
    447.128 0 v
    367.256 0 v
    384.883 440 v
    204.883 653 o
    0 0 z
  EndSpiro
EndSplineSet
EndChar

StartChar: uniE003
Encoding: 57347 57347 3
Width: 700
VWidth: 0
InSpiro: 1
Flags: HW
LayerCount: 2
Fore
SplineSet
335.57421875 578.559570312 m 0
 376.755859375 581.043945312 418.484375 573.266601562 456.112304688 556.349609375 c 0
 493.740234375 539.432617188 527.189453125 513.490234375 553.467773438 481.686523438 c 0
 606.025390625 418.078125 628.8984375 331.670898438 618.198242188 249.856445312 c 0
 610.015625 187.293945312 582.42578125 127.073242188 538.805664062 81.4853515625 c 0
 495.185546875 35.8974609375 435.270507812 5.7529296875 372.438476562 0 c 0
 331.588867188 -3.740234375 289.879882812 2.6484375 251.936523438 18.234375 c 0
 213.993164062 33.8203125 179.899414062 58.4931640625 152.731445312 89.2255859375 c 0
 98.39453125 150.69140625 72.8115234375 235.770507812 80.5986328125 317.440429688 c 0
 86.8837890625 383.364257812 114.676757812 447.444335938 160.248046875 495.494140625 c 0
 205.8203125 543.543945312 269.470703125 574.572265625 335.57421875 578.559570312 c 0
  Spiro
    618.195 249.856 o
    372.435 0 o
    80.5949 317.44 o
    335.571 578.56 o
    0 0 z
  EndSpiro
466 477 m 0
 444.44140625 489.625 419.52734375 496.26953125 394.548828125 496.774414062 c 0
 369.571289062 497.278320312 344.6328125 491.77734375 321.627929688 482.034179688 c 0
 275.618164062 462.545898438 237.463867188 427.354492188 208 387 c 0
 179.051757812 347.3515625 157.440429688 301.126953125 153.16796875 252.221679688 c 0
 151.032226562 227.768554688 153.5078125 202.791992188 161.630859375 179.629882812 c 0
 169.754882812 156.466796875 183.614257812 135.26171875 202 119 c 0
 221.275390625 101.951171875 245.366210938 90.5224609375 270.669921875 85.841796875 c 0
 295.974609375 81.1611328125 322.318359375 83.111328125 347.065429688 90.1669921875 c 0
 396.560546875 104.279296875 439.073242188 137.443359375 472 177 c 0
 508.481445312 220.827148438 535.333984375 274.6328125 538.43359375 331.572265625 c 0
 539.982421875 360.041992188 535.138671875 389.046875 522.819335938 414.759765625 c 0
 510.499023438 440.47265625 490.603515625 462.591796875 466 477 c 0
  Spiro
    466 477 o
    208 387 o
    202 119 o
    472 177 o
    0 0 z
  EndSpiro
EndSplineSet
EndChar

StartChar: uniE004
Encoding: 57348 57348 4
Width: 700
VWidth: 0
Flags: HW
LayerCount: 2
Fore
SplineSet
179.380859375 584 m 1
 225.380859375 571 l 1
 211.380859375 602 213.380859375 639 228.380859375 669 c 0
 243.380859375 699 272.380859375 721 305.380859375 728 c 0
 324.380859375 732 345.380859375 732 364.380859375 727 c 0
 383.380859375 722 401.380859375 712 416.380859375 700 c 0
 446.380859375 675 465.380859375 639 474.380859375 601 c 0
 483.380859375 563 482.380859375 522 476.380859375 483 c 0
 470.380859375 444 460.380859375 407 450.380859375 369 c 0
 434.380859375 309 418.380859375 248 413.380859375 186 c 0
 408.380859375 124 411.380859375 61 425.380859375 0 c 1
 471.380859375 0 l 1
 474.380859375 104 489.380859375 207 508.380859375 310 c 0
 527.380859375 412 550.380859375 516 529.380859375 618 c 0
 519.380859375 669 496.380859375 718 460.380859375 755 c 0
 424.380859375 792 373.380859375 815 321.380859375 814 c 0
 294.380859375 813 267.380859375 806 243.380859375 793 c 0
 219.380859375 780 199.380859375 761 185.380859375 738 c 0
 171.380859375 715 163.380859375 689 162.380859375 662 c 0
 161.380859375 635 167.380859375 608 179.380859375 584 c 1
EndSplineSet
EndChar

StartChar: uniE005
Encoding: 57349 57349 5
Width: 700
VWidth: 0
Flags: HW
LayerCount: 2
Fore
SplineSet
294.5 812 m 29
 291.5 0 l 25
 408.5 0 l 25
 356.5 812 l 25
 294.5 812 l 29
EndSplineSet
EndChar

StartChar: uniE006
Encoding: 57350 57350 6
Width: 700
VWidth: 0
Flags: HW
LayerCount: 2
Fore
SplineSet
520.125 584 m 1
 474.125 571 l 1
 488.125 602 487.125 639 472.125 669 c 0
 457.125 699 427.125 721 394.125 728 c 0
 375.125 732 355.125 732 336.125 727 c 0
 317.125 722 299.125 712 284.125 700 c 0
 254.125 675 234.125 639 225.125 601 c 0
 216.125 563 217.125 522 223.125 483 c 0
 229.125 444 240.125 407 250.125 369 c 0
 266.125 309 281.125 248 286.125 186 c 0
 291.125 124 288.125 61 274.125 0 c 1
 228.125 0 l 1
 225.125 104 210.125 207 191.125 310 c 0
 172.125 412 149.125 516 170.125 618 c 0
 180.125 669 204.125 718 240.125 755 c 0
 276.125 792 327.125 815 379.125 814 c 0
 406.125 813 432.125 806 456.125 793 c 0
 480.125 780 500.125 761 514.125 738 c 0
 528.125 715 537.125 689 538.125 662 c 0
 539.125 635 532.125 608 520.125 584 c 1
EndSplineSet
EndChar

StartChar: uniE007
Encoding: 57351 57351 7
Width: 700
VWidth: 0
Flags: HW
LayerCount: 2
Fore
SplineSet
753.5 309 m 5
 680.5 358 l 5
 557.5 129 143.5 219 12.5 342 c 5
 -53.5 281 l 5
 98.5 121 642.5 63 753.5 309 c 5
EndSplineSet
EndChar

StartChar: uniE008
Encoding: 57352 57352 8
Width: 700
VWidth: 0
InSpiro: 1
Flags: HW
LayerCount: 2
Fore
SplineSet
-46.2880859375 67.583984375 m 1
 52.0166015625 21.50390625 l 1
 81.7705078125 82.130859375 126.265625 135.59765625 181.040039062 175.103515625 c 0
 251.501953125 225.924804688 340.95703125 252.978515625 426.799804688 239.616210938 c 0
 478.400390625 231.583984375 527.7890625 208.991210938 566.9296875 174.420898438 c 0
 606.0703125 139.849609375 634.704101562 93.5126953125 647.984375 43.0078125 c 1
 746.288085938 98.3037109375 l 1
 691.5546875 190.924804688 600.618164062 261.3125 497.456054688 291.83984375 c 0
 385.263671875 325.040039062 260.763671875 311.06640625 156.463867188 258.047851562 c 0
 72.693359375 215.46484375 1.5966796875 148.442382812 -46.2880859375 67.583984375 c 1
  Spiro
    -46.2874 67.584 v
    52.016 21.504 v
    181.04 175.104 o
    426.8 239.616 o
    647.984 43.008 v
    746.288 98.304 v
    497.456 291.84 o
    156.464 258.048 o
    0 0 z
  EndSpiro
-46.2880859375 95.232421875 m 1048
  Spiro
    -46.2874 95.232 {
    0 0 z
  EndSpiro
EndSplineSet
EndChar

StartChar: uniE009
Encoding: 57353 57353 9
Width: 700
VWidth: 0
InSpiro: 1
Flags: HW
LayerCount: 2
Fore
SplineSet
266.7109375 17.408203125 m 1
 211.482421875 115 l 1
 292.940429688 138.205078125 364.502929688 194.89453125 404.94921875 269.311523438 c 0
 435.2109375 324.991210938 448.020507812 390.323242188 439.106445312 453.064453125 c 0
 430.192382812 515.805664062 399.129882812 575.442382812 351.701171875 617.471679688 c 0
 319.576171875 645.940429688 280.291015625 666.278320312 238.482421875 676 c 1
 323.029296875 802.81640625 l 1
 372.950195312 750.092773438 413.721679688 688.66796875 442.482421875 622 c 0
 492.708984375 505.572265625 505.104492188 370.596679688 463.317382812 250.879882812 c 0
 429.01953125 152.620117188 357.989257812 67.4033203125 266.7109375 17.408203125 c 1
  Spiro
    266.71 17.408 v
    211.482 115 v
    404.949 269.312 o
    351.701 617.472 o
    238.482 676 v
    323.029 802.816 v
    442.482 622 o
    463.317 250.88 o
    0 0 z
  EndSpiro
EndSplineSet
EndChar

StartChar: uniE00A
Encoding: 57354 57354 10
Width: 700
VWidth: 0
InSpiro: 1
Flags: HW
LayerCount: 2
Fore
SplineSet
416.817382812 764.927734375 m 1
 472.11328125 724.9921875 l 1
 374.131835938 637.149414062 285.229492188 535.28515625 232.497070312 414.719726562 c 0
 205.517578125 353.033203125 189.830078125 284.385742188 201.34375 218.048828125 c 0
 207.100585938 184.880859375 219.815429688 152.733398438 239.806640625 125.646484375 c 0
 259.797851562 98.560546875 287.150390625 76.74609375 318.513671875 64.51171875 c 0
 359.912109375 48.3623046875 408.04296875 49.7978515625 447.953125 69.3388671875 c 0
 487.86328125 88.8798828125 518.666992188 126.122070312 530.481445312 168.959960938 c 0
 539.732421875 202.504882812 537.51953125 239.086914062 524.375 271.305664062 c 0
 511.229492188 303.524414062 487.237304688 331.19921875 457.23046875 348.819335938 c 0
 427.223632812 366.439453125 391.377929688 373.908203125 356.829101562 369.754882812 c 0
 322.280273438 365.6015625 289.228515625 349.849609375 264.241210938 325.631835938 c 1
 254.000976562 384 l 1
 291.850585938 407.29296875 337.241210938 418.10546875 381.526367188 414.375976562 c 0
 425.811523438 410.646484375 468.755859375 392.39453125 502.170898438 363.092773438 c 0
 535.584960938 333.791015625 559.291015625 293.59375 568.741210938 250.16796875 c 0
 578.192382812 206.7421875 573.333984375 160.318359375 555.057617188 119.807617188 c 0
 529.442382812 63.03125 477.051757812 19.083984375 416.71875 3.6025390625 c 0
 356.38671875 -11.8798828125 289.810546875 1.3466796875 238.641601562 36.8642578125 c 0
 185.159179688 73.9873046875 149.298828125 133.548828125 134.833007812 197.025390625 c 0
 120.3671875 260.501953125 125.85546875 327.451171875 143.409179688 390.143554688 c 0
 185.831054688 541.651367188 290.4296875 671.225585938 416.817382812 764.927734375 c 1
  Spiro
    416.821 764.928 v
    472.117 724.992 v
    232.501 414.72 o
    318.517 64.512 o
    530.485 168.96 o
    264.245 325.632 v
    254.005 384 v
    555.061 119.808 o
    238.645 36.864 o
    143.412 390.144 o
    0 0 z
  EndSpiro
EndSplineSet
EndChar

StartChar: uniE00B
Encoding: 57355 57355 11
Width: 700
VWidth: 0
InSpiro: 1
Flags: HW
LayerCount: 2
Fore
SplineSet
39.728515625 58.3681640625 m 1
 306.9921875 780.288085938 l 1
 660.271484375 30.7197265625 l 1
 537.392578125 15.3603515625 l 1
 310.064453125 642.047851562 l 1
 184.111328125 0 l 1
 39.728515625 58.3681640625 l 1
  Spiro
    39.718 58.368 v
    306.982 780.288 v
    660.262 30.72 v
    537.382 15.36 v
    310.054 642.048 v
    184.102 0 v
    0 0 z
  EndSpiro
EndSplineSet
EndChar

StartChar: uniE00C
Encoding: 57356 57356 12
Width: 700
VWidth: 0
InSpiro: 1
Flags: HW
LayerCount: 2
Fore
SplineSet
84.271484375 801.791992188 m 1
 615.728515625 814.080078125 l 1
 604.837890625 621.727539062 584.32421875 429.920898438 554.287109375 239.616210938 c 0
 541.634765625 159.454101562 527.294921875 79.55859375 511.279296875 0 c 1
 443.6953125 18.431640625 l 1
 479.8515625 164.83203125 505.5390625 313.81640625 520.49609375 463.872070312 c 0
 529.552734375 554.729492188 534.677734375 645.979492188 535.85546875 737.280273438 c 1
 108.84765625 712.704101562 l 1
 84.271484375 801.791992188 l 1
  Spiro
    84.2772 801.792 v
    615.733 814.08 v
    554.293 239.616 o
    511.285 0 v
    443.701 18.432 v
    520.501 463.872 o
    535.861 737.28 v
    108.853 712.704 v
    0 0 z
  EndSpiro
EndSplineSet
EndChar

StartChar: uniE00D
Encoding: 57357 57357 13
Width: 700
VWidth: 0
InSpiro: 1
Flags: HW
LayerCount: 2
Fore
SplineSet
33.0390625 648.192382812 m 1
 65.6025390625 664.627929688 102.060546875 673.1875 138.537109375 673.30078125 c 0
 175.014648438 673.413085938 211.223632812 665.021484375 245.006835938 651.263671875 c 0
 301.405273438 628.296875 350.536132812 589.93359375 407.064453125 567.290039062 c 0
 435.329101562 555.967773438 465.869140625 548.997070312 496.204101562 551.6171875 c 0
 526.5390625 554.23828125 556.479492188 567.133789062 576.783203125 589.82421875 c 0
 590.815429688 605.506835938 599.965820312 625.620117188 601.926757812 646.573242188 c 0
 603.888671875 667.526367188 598.572265625 689.1171875 586.952148438 706.663085938 c 0
 575.33203125 724.208984375 557.538085938 737.524414062 537.502929688 743.96484375 c 0
 517.46875 750.404296875 495.403320312 749.984375 475.407226562 743.423828125 c 0
 443.310546875 732.89453125 417.569335938 706.958007812 403.111328125 676.428710938 c 0
 388.653320312 645.899414062 384.584960938 611.271484375 386.319335938 577.536132812 c 0
 391.413085938 478.439453125 436.3125 385.447265625 449.27734375 287.0703125 c 0
 462.2421875 188.692382812 445.978515625 85.44921875 395.53515625 0 c 1
 334.094726562 0 l 1
 359.026367188 50.3017578125 374.219726562 105.338867188 379.225585938 161.255859375 c 0
 384.23046875 217.172851562 378.84765625 273.643554688 367.88671875 328.704101562 c 0
 354.380859375 396.549804688 332.357421875 462.70703125 323.201171875 531.275390625 c 0
 318.623046875 565.55859375 317.483398438 600.4921875 322.67578125 634.688476562 c 0
 327.868164062 668.884765625 339.5625 702.3046875 358.670898438 731.135742188 c 0
 376.40625 757.89453125 400.512695312 780.52734375 428.786132812 795.733398438 c 0
 457.05859375 810.939453125 489.418945312 818.633789062 521.487304688 817.15234375 c 0
 552.66015625 815.711914062 583.482421875 805.537109375 608.96875 787.530273438 c 0
 634.455078125 769.522460938 654.416015625 743.66015625 664.80859375 714.235351562 c 0
 675.201171875 684.810546875 675.860351562 652.03515625 666.61328125 622.23046875 c 0
 657.366210938 592.42578125 638.342773438 565.892578125 613.646484375 546.81640625 c 0
 587.680664062 526.758789062 555.836914062 514.982421875 523.3046875 510.716796875 c 0
 490.772460938 506.452148438 457.62109375 509.411132812 425.458984375 515.904296875 c 0
 361.135742188 528.891601562 299.991210938 554.737304688 235.791015625 568.3203125 c 0
 166.883789062 582.8984375 94.2861328125 582.649414062 26.89453125 562.17578125 c 1
 33.0390625 648.192382812 l 1
  Spiro
    33.0529 648.192 v
    245.021 651.264 o
    576.797 589.824 o
    475.421 743.424 o
    386.333 577.536 o
    395.549 0 v
    334.109 0 v
    367.901 328.704 o
    358.685 731.136 o
    521.501 817.152 o
    613.661 546.816 o
    235.805 568.32 o
    26.9089 562.176 v
    0 0 z
  EndSpiro
EndSplineSet
EndChar

StartChar: uniE00E
Encoding: 57358 57358 14
Width: 700
VWidth: 0
InSpiro: 1
Flags: HW
LayerCount: 2
Fore
SplineSet
228 816 m 1
 528 480 l 1
 450 432 l 1
 150 741 l 1
 228 816 l 1
  Spiro
    228 816 v
    528 480 v
    450 432 v
    150 741 v
    0 0 z
  EndSpiro
550 816 m 1
 486 645 l 1
 424.037109375 645.059570312 362.377929688 620.681640625 317.208007812 578.265625 c 0
 272.038085938 535.850585938 243.833984375 475.84375 240 414 c 0
 235.697265625 344.586914062 262.47265625 273.825195312 311.649414062 224.649414062 c 0
 360.825195312 175.47265625 431.586914062 148.697265625 501 153 c 1
 550 0 l 1
 444.532226562 2.0888671875 340.530273438 46.98828125 266.681640625 122.314453125 c 0
 192.83203125 197.641601562 150 302.51171875 150 408 c 0
 150 513.48828125 192.83203125 618.358398438 266.681640625 693.685546875 c 0
 340.530273438 769.01171875 444.532226562 813.911132812 550 816 c 1
  Spiro
    550 816 v
    486 645 v
    240 414 o
    501 153 v
    550 0 v
    150 408 o
    0 0 z
  EndSpiro
EndSplineSet
EndChar

StartChar: uniE00F
Encoding: 57359 57359 15
Width: 700
VWidth: 0
InSpiro: 1
Flags: HW
LayerCount: 2
Fore
SplineSet
343.1171875 369.6640625 m 1
 318.697265625 369.77734375 294.268554688 363.609375 272.84765625 351.8828125 c 0
 251.426757812 340.15625 233.030273438 322.880859375 220.237304688 302.080078125 c 0
 207.537109375 281.430664062 200.416992188 257.27734375 200.583007812 233.03515625 c 0
 200.748046875 208.79296875 208.333984375 184.54296875 222.630859375 164.96484375 c 0
 236.927734375 145.38671875 257.919921875 130.720703125 281.325195312 124.405273438 c 0
 304.73046875 118.08984375 330.251953125 120.235351562 352.440429688 130 c 0
 371.932617188 138.578125 388.75 152.819335938 401.23046875 170.07421875 c 0
 413.7109375 187.330078125 421.924804688 207.471679688 426.442382812 228.282226562 c 0
 435.4765625 269.903320312 430.310546875 313.342773438 421.440429688 355 c 0
 407.374023438 421.064453125 385.998046875 485.4765625 360.440429688 548 c 0
 327.731445312 628.018554688 283.934570312 703.717773438 228.440429688 770 c 1
 342.440429688 827 l 1
 613.440429688 653 l 1
 613.440429688 518 l 1
 411.440429688 656 l 1
 447.272460938 597.944335938 475.907226562 535.366210938 495.440429688 470 c 0
 510.787109375 418.643554688 520.510742188 365.413085938 521.48046875 311.821289062 c 0
 522.450195312 258.23046875 514.434570312 204.028320312 493.64453125 154.624023438 c 0
 475.24609375 110.901367188 446.477539062 71.0810546875 408.423828125 42.7607421875 c 0
 370.369140625 14.4404296875 322.9375 -1.7138671875 275.533203125 0 c 0
 234.455078125 1.4853515625 193.95703125 16.408203125 161.829101562 42.0458984375 c 0
 129.700195312 67.6845703125 106.174804688 103.719726562 94.7919921875 143.216796875 c 0
 83.4091796875 182.713867188 84.0419921875 225.412109375 95.376953125 264.922851562 c 0
 106.711914062 304.43359375 128.563476562 340.748046875 157.440429688 370 c 0
 201.73828125 414.872070312 262.596679688 442.862304688 325.440429688 448 c 1
 343.1171875 369.6640625 l 1
  Spiro
    343.117 369.664 v
    220.237 302.08 o
    352.441 130 o
    421.441 355 o
    360.441 548 o
    228.441 770 v
    342.441 827 v
    613.441 653 v
    613.441 518 v
    411.441 656 v
    495.441 470 o
    493.645 154.624 o
    275.533 0 o
    157.441 370 o
    325.441 448 v
    0 0 z
  EndSpiro
EndSplineSet
EndChar

StartChar: uniE010
Encoding: 57360 57360 16
Width: 700
VWidth: 0
InSpiro: 1
Flags: HW
LayerCount: 2
Fore
SplineSet
277.419921875 394.240234375 m 1
 526.251953125 179.200195312 l 1
 487.081054688 155 l 1
 247.081054688 338 l 1
 277.419921875 394.240234375 l 1
  Spiro
    277.419 394.24 v
    526.251 179.2 v
    487.081 155 v
    247.081 338 v
    0 0 z
  EndSpiro
460.715820312 794.624023438 m 1
 441.259765625 735.232421875 l 1
 423.75 748.544921875 402.708984375 757.166992188 380.892578125 759.970703125 c 0
 359.076171875 762.774414062 336.5390625 759.751953125 316.232421875 751.299804688 c 0
 295.92578125 742.84765625 277.899414062 728.985351562 264.515625 711.530273438 c 0
 251.1328125 694.07421875 242.423828125 673.068359375 239.53125 651.263671875 c 0
 236.685546875 629.8046875 239.474609375 607.623046875 247.545898438 587.537109375 c 0
 255.6171875 567.451171875 268.952148438 549.506835938 285.85546875 535.984375 c 0
 302.758789062 522.461914062 323.192382812 513.391601562 344.560546875 509.92578125 c 0
 365.927734375 506.4609375 388.180664062 508.608398438 408.491210938 516.095703125 c 1
 411.563476562 0 l 1
 331.69140625 0 l 1
 349.081054688 440 l 1
 298.046875 444.107421875 249.09765625 469.782226562 216.70703125 509.43359375 c 0
 184.31640625 549.084960938 168.923828125 602.171875 175.081054688 653 c 0
 182.6484375 715.463867188 223.302734375 772.952148438 279.674804688 800.903320312 c 0
 336.046875 828.853515625 406.415039062 826.413085938 460.715820312 794.624023438 c 1
  Spiro
    460.715 794.624 v
    441.259 735.232 v
    239.532 651.264 o
    408.491 516.096 v
    411.563 0 v
    331.691 0 v
    349.081 440 v
    175.081 653 o
    0 0 z
  EndSpiro
EndSplineSet
EndChar

StartChar: uniE011
Encoding: 57361 57361 17
Width: 700
VWidth: 0
InSpiro: 1
Flags: HW
LayerCount: 2
Fore
SplineSet
723.94921875 86.015625 m 1
 653.552734375 142.40234375 586.420898438 202.865234375 523.002929688 267 c 0
 475.533203125 315.005859375 430.143554688 365.068359375 387.002929688 417 c 1
 338.924804688 538.624023438 l 1
 729.002929688 185 l 1
 723.94921875 86.015625 l 1
  Spiro
    723.949 86.016 v
    523.003 267 o
    387.003 417 v
    338.925 538.624 v
    729.003 185 v
    0 0 z
  EndSpiro
455.661132812 260.095703125 m 0
 449.038085938 194.151367188 424.34375 129.096679688 380.325195312 79.5498046875 c 0
 358.31640625 54.7763671875 331.500976562 34.1474609375 301.442382812 20.1982421875 c 0
 271.3828125 6.2490234375 238.12890625 -0.8896484375 205.002929688 0 c 0
 171.140625 0.9091796875 137.594726562 10.2119140625 107.86328125 26.4453125 c 0
 78.1318359375 42.6787109375 52.2646484375 65.6943359375 31.77734375 92.6708984375 c 0
 -9.197265625 146.624023438 -28.60546875 215.251953125 -28.9970703125 283 c 0
 -29.4228515625 356.844726562 -7.4189453125 431.9375 38.95703125 489.403320312 c 0
 62.1455078125 518.13671875 91.447265625 542.102539062 124.828125 557.883789062 c 0
 158.208984375 573.665039062 195.590820312 581.060546875 232.428710938 578.559570312 c 0
 268.51953125 576.110351562 303.844726562 564.19140625 334.388671875 544.8125 c 0
 364.932617188 525.432617188 390.65625 498.78125 410.0859375 468.268554688 c 0
 448.944335938 407.243164062 462.889648438 332.081054688 455.661132812 260.095703125 c 0
  Spiro
    455.661 260.096 o
    205.003 0 o
    -28.997 283 o
    232.429 578.56 o
    0 0 z
  EndSpiro
337.002929688 455 m 0
 304.115234375 475.317382812 263.670898438 482.1015625 225.447265625 476.325195312 c 0
 187.223632812 470.549804688 151.243164062 453.08203125 121.002929688 429 c 0
 71.80078125 389.817382812 35.908203125 332.215820312 28.9736328125 269.702148438 c 0
 25.505859375 238.444335938 29.658203125 206.182617188 42.3359375 177.401367188 c 0
 55.0126953125 148.62109375 76.30859375 123.626953125 103.002929688 107 c 0
 123.478515625 94.2470703125 146.938476562 86.41796875 170.926757812 83.87890625 c 0
 194.915039062 81.3388671875 219.365234375 84.0234375 242.469726562 90.958984375 c 0
 288.677734375 104.828125 329.151367188 135.099609375 359.002929688 173 c 0
 391.98828125 214.879882812 412.918945312 267.486328125 411.30078125 320.772460938 c 0
 410.491210938 347.415039062 403.868164062 373.977539062 391.172851562 397.415039062 c 0
 378.477539062 420.852539062 359.6796875 440.991210938 337.002929688 455 c 0
  Spiro
    337.003 455 o
    121.003 429 o
    103.003 107 o
    359.003 173 o
    0 0 z
  EndSpiro
EndSplineSet
EndChar

StartChar: uniE012
Encoding: 57362 57362 18
Width: 700
VWidth: 0
InSpiro: 1
Flags: HW
VStem: 102.727 65.8555<584.803 697.684> 354.102 57.959<2.84904 223.55>
LayerCount: 2
Fore
SplineSet
259.477539062 495.616210938 m 1
 594.326171875 252.927734375 l 1
 597.397460938 317.440429688 l 1
 287.125976562 560.127929688 l 1
 259.477539062 495.616210938 l 1
  Spiro
    259.488 495.616 v
    594.336 252.928 v
    597.408 317.44 v
    287.136 560.128 v
    0 0 z
  EndSpiro
120.213867188 583.6796875 m 1
 166.293945312 571.391601562 l 1
 152.29296875 601.953125 153.194335938 638.913085938 168.575195312 668.803710938 c 0
 183.955078125 698.694335938 213.345703125 720.79296875 246.166015625 728.064453125 c 0
 265.334960938 732.310546875 285.509765625 731.725585938 304.501953125 726.748046875 c 0
 323.495117188 721.770507812 341.278320312 712.448242188 356.513671875 700.063476562 c 0
 386.984375 675.293945312 406.580078125 638.77734375 415.353515625 600.501953125 c 0
 424.127929688 562.2265625 422.77734375 522.227539062 416.860351562 483.407226562 c 0
 410.944335938 444.586914062 400.639648438 406.58984375 390.549804688 368.639648438 c 0
 374.549804688 308.458984375 359.573242188 247.708007812 354.094726562 185.677734375 c 0
 348.616210938 123.6484375 352.275390625 60.74609375 365.973632812 0 c 1
 412.053710938 0 l 1
 414.55859375 104.249023438 429.756835938 207.768554688 448.91796875 310.272460938 c 0
 467.961914062 412.1484375 490.96484375 516.907226562 470.115234375 618.430664062 c 0
 459.690429688 669.19140625 437.227539062 718.321289062 400.76171875 755.140625 c 0
 364.295898438 791.959960938 313.333007812 815.247070312 261.525390625 814.080078125 c 0
 234.575195312 813.47265625 207.749023438 806.389648438 184.194335938 793.280273438 c 0
 160.638671875 780.171875 140.432617188 761.0546875 126.204101562 738.157226562 c 0
 111.9765625 715.260742188 103.775390625 688.645507812 102.719726562 661.708984375 c 0
 101.6640625 634.771484375 107.755859375 607.5859375 120.213867188 583.6796875 c 1
  Spiro
    120.224 583.68 v
    166.304 571.392 v
    246.176 728.064 o
    390.56 368.64 o
    365.984 0 v
    412.064 0 v
    448.928 310.272 o
    261.536 814.08 o
    0 0 z
  EndSpiro
EndSplineSet
EndChar

StartChar: uniE013
Encoding: 57363 57363 19
Width: 700
VWidth: 0
Flags: HW
LayerCount: 2
Fore
SplineSet
118 616 m 1
 560 318 l 1
 582 368 l 1
 140 693 l 5
 118 616 l 1
287 812 m 25
 284 0 l 25
 401 0 l 25
 349 812 l 25
 287 812 l 25
EndSplineSet
EndChar

StartChar: uniE014
Encoding: 57364 57364 20
Width: 700
VWidth: 0
Flags: HW
LayerCount: 2
Fore
SplineSet
109.953125 671 m 1
 425.953125 425 l 1
 422.953125 373 l 5
 94.953125 618 l 1
 109.953125 671 l 1
586.953125 584 m 1
 540.953125 571 l 1
 554.953125 602 553.953125 639 538.953125 669 c 0
 523.953125 699 493.953125 721 460.953125 728 c 0
 441.953125 732 421.953125 732 402.953125 727 c 0
 383.953125 722 365.953125 712 350.953125 700 c 0
 320.953125 675 300.953125 639 291.953125 601 c 0
 282.953125 563 283.953125 522 289.953125 483 c 0
 295.953125 444 306.953125 407 316.953125 369 c 0
 332.953125 309 347.953125 248 352.953125 186 c 0
 357.953125 124 354.953125 61 340.953125 0 c 1
 294.953125 0 l 1
 291.953125 104 276.953125 207 257.953125 310 c 0
 238.953125 412 215.953125 516 236.953125 618 c 0
 246.953125 669 270.953125 718 306.953125 755 c 0
 342.953125 792 393.953125 815 445.953125 814 c 0
 472.953125 813 498.953125 806 522.953125 793 c 0
 546.953125 780 566.953125 761 580.953125 738 c 0
 594.953125 715 603.953125 689 604.953125 662 c 0
 605.953125 635 598.953125 608 586.953125 584 c 1
EndSplineSet
EndChar

StartChar: uniE015
Encoding: 57365 57365 21
Width: 700
VWidth: 0
Flags: HW
LayerCount: 2
Fore
SplineSet
418.5 305 m 29
 633.5 50 l 25
 713.5 90 l 25
 461.5 373 l 25
 418.5 305 l 29
753.5 309 m 1
 680.5 358 l 1
 557.5 129 143.5 219 12.5 342 c 1
 -53.5 281 l 1
 98.5 121 642.5 63 753.5 309 c 1
EndSplineSet
EndChar

StartChar: uniE016
Encoding: 57366 57366 22
Width: 700
VWidth: 0
Flags: HW
LayerCount: 2
Fore
SplineSet
-24.5 310 m 5
 200.5 24 l 1
 241.5 58 l 1
 8.5 321 l 1
 -24.5 310 l 5
-46.5 68 m 1
 52.5 22 l 1
 82.5 83 126.5 135 181.5 175 c 0
 251.5 226 340.5 253 426.5 240 c 0
 478.5 232 528.5 209 567.5 174 c 0
 606.5 139 635.5 94 648.5 43 c 1
 746.5 98 l 1
 691.5 191 600.5 261 497.5 292 c 0
 385.5 325 260.5 311 156.5 258 c 0
 72.5 215 1.5 149 -46.5 68 c 1
-46.5 95 m 1048
EndSplineSet
EndChar

StartChar: uniE017
Encoding: 57367 57367 23
Width: 700
VWidth: 0
Flags: HW
LayerCount: 2
Fore
SplineSet
237 306 m 29
 513 97 l 25
 452 52 l 25
 187 306 l 25
 237 306 l 29
243 17 m 1
 221 70 l 1
 298 112 356 185 381 269 c 0
 398 327 400 390 390 449 c 0
 380 508 358 565 328 617 c 0
 303 660 273 701 238 737 c 1
 299 803 l 1
 336 745 368 684 395 621 c 0
 419 563 439 502 448 439 c 0
 457 376 456 312 439 251 c 0
 411 150 339 60 243 17 c 1
EndSplineSet
EndChar

StartChar: uniE018
Encoding: 57368 57368 24
Width: 700
VWidth: 0
Flags: HW
LayerCount: 2
Fore
SplineSet
392.846679688 650 m 1
 159.846679688 758 l 1
 276.846679688 822 l 1
 503.846679688 659 l 1
 405.846679688 579 285.846679688 486 232.846679688 376 c 0
 205.846679688 320 189.846679688 257 201.846679688 197 c 0
 207.846679688 167 219.846679688 138 239.846679688 113 c 0
 259.846679688 88 287.846679688 68 318.846679688 57 c 0
 359.846679688 42 407.846679688 43 447.846679688 61 c 0
 487.846679688 79 518.846679688 113 530.846679688 152 c 0
 539.846679688 183 537.846679688 216 524.846679688 245 c 0
 511.846679688 274 486.846679688 300 456.846679688 316 c 0
 426.846679688 332 391.846679688 339 356.846679688 335 c 0
 321.846679688 331 288.846679688 317 263.846679688 295 c 1
 253.846679688 348 l 1
 291.846679688 369 337.846679688 378 381.846679688 375 c 0
 425.846679688 372 468.846679688 356 501.846679688 329 c 0
 534.846679688 302 559.846679688 266 568.846679688 226 c 0
 577.846679688 186 572.846679688 144 554.846679688 107 c 0
 528.846679688 55 476.846679688 16 416.846679688 2 c 0
 356.846679688 -12 289.846679688 0 238.846679688 32 c 0
 185.846679688 66 148.846679688 120 134.846679688 178 c 0
 120.846679688 236 125.846679688 296 143.846679688 353 c 0
 185.846679688 491 266.846679688 565 392.846679688 650 c 1
EndSplineSet
EndChar

StartChar: uniE019
Encoding: 57369 57369 25
Width: 700
VWidth: 0
Flags: HW
LayerCount: 2
Fore
SplineSet
67 481 m 29
 654 137 l 25
 580 20 l 25
 6 435 l 25
 67 481 l 29
73 58 m 1
 341 780 l 1
 694 31 l 1
 571 15 l 1
 344 642 l 1
 218 0 l 1
 73 58 l 1
EndSplineSet
EndChar

StartChar: uniE01A
Encoding: 57370 57370 26
Width: 700
VWidth: 0
Flags: HW
LayerCount: 2
Fore
SplineSet
338.5 537 m 1
 664.5 207 l 5
 609.5 164 l 1
 341.5 446 l 1
 338.5 537 l 1
35.5 802 m 1
 567.5 814 l 1
 556.5 622 535.5 430 505.5 240 c 0
 492.5 160 478.5 80 462.5 0 c 1
 395.5 18 l 1
 431.5 164 456.5 314 471.5 464 c 0
 480.5 555 486.5 646 487.5 737 c 1
 60.5 713 l 1
 35.5 802 l 1
EndSplineSet
EndChar

StartChar: uniE01B
Encoding: 57371 57371 27
Width: 700
VWidth: 0
InSpiro: 1
Flags: HW
LayerCount: 2
Fore
SplineSet
242.421875 465 m 1
 611.421875 182 l 1
 568.421875 139 l 1
 224.421875 403 l 1
 242.421875 465 l 1
  Spiro
    242.422 465 v
    611.422 182 v
    568.422 139 v
    224.422 403 v
    0 0 z
  EndSpiro
32.421875 648 m 1
 229.506835938 666 296.927734375 611.181640625 406.421875 567 c 0
 562.543945312 505.666992188 681.446289062 700.79296875 537.421875 744 c 0
 436.021484375 774.419921875 380.819335938 673.24609375 386.421875 578 c 0
 391.421875 479 436.421875 385 449.421875 287 c 0
 462.421875 189 445.421875 85 395.421875 0 c 1
 333.421875 0 l 1
 380.908203125 94.97265625 392.174804688 205.234375 367.421875 329 c 0
 331.984375 501.126953125 271.416992188 711.889648438 428.421875 796 c 0
 591.876953125 883.564453125 769.178710938 665.375 613.421875 547 c 0
 450.3125 421.53125 239.586914062 625.630859375 26.421875 562 c 1
 32.421875 648 l 1
  Spiro
    32.4227 648 v
    66.5353 661.581 o
    102.31 670.08 o
    138.422 673 o
    174.312 670.413 o
    209.865 662.916 o
    244.422 651 o
    298.591 624.141 o
    351.586 593.859 o
    406.422 567 o
    435.503 557.563 o
    466.008 552.108 o
    496.422 552 o
    526.023 558.065 o
    553.485 570.608 o
    576.422 590 o
    588.671 607.204 o
    597.169 626.464 o
    601.422 647 o
    601.091 667.868 o
    596.081 688.131 o
    586.422 707 o
    572.845 723.245 o
    556.33 735.751 o
    537.422 744 o
    516.924 747.961 o
    495.92 747.701 o
    475.422 743 o
    445.413 727.649 o
    420.437 704.678 o
    402.422 676 o
    391.615 644.403 o
    386.568 611.596 o
    386.422 578 o
    402.065 480.43 o
    428.448 383.904 o
    449.422 287 o
    452.318 188.025 o
    434.505 90.3125 o
    395.422 0 v
    333.422 0 v
    355.329 51.4656 o
    370.842 105.536 o
    379.422 161 o
    380.979 217.166 o
    376.526 273.5 o
    367.422 329 o
    351.809 396.192 o
    335.703 463.141 o
    323.422 531 o
    319.832 565.484 o
    319.349 600.516 o
    322.422 635 o
    329.746 668.523 o
    341.77 700.809 o
    358.422 731 o
    378.326 756.495 o
    401.855 778.501 o
    428.422 796 o
    457.836 808.324 o
    489.343 815.338 o
    521.422 817 o
    552.169 813.044 o
    581.673 803.284 o
    608.422 788 o
    631.808 767.282 o
    651.031 742.047 o
    664.422 714 o
    671.381 683.957 o
    672.123 652.71 o
    666.422 622 o
    654.252 593.471 o
    636.253 568.199 o
    613.422 547 o
    585.895 529.681 o
    555.613 517.657 o
    523.422 511 o
    490.492 509.185 o
    457.686 511.152 o
    425.422 516 o
    362.004 532.13 o
    298.84 551.204 o
    235.422 568 o
    165.53 577.552 o
    94.9823 575.77 o
    26.4227 562 v
    0 0 z
  EndSpiro
EndSplineSet
EndChar

StartChar: uniE01C
Encoding: 57372 57372 28
Width: 700
VWidth: 0
InSpiro: 1
Flags: HW
LayerCount: 2
Fore
SplineSet
119.5 461 m 1
 515.5 464 l 1
 554.5 371 l 1
 149.5 365 l 1
 119.5 461 l 1
  Spiro
    119.5 461 v
    515.5 464 v
    554.5 371 v
    149.5 365 v
    0 0 z
  EndSpiro
580.5 816 m 1
 516.5 645 l 1
 458.5390625 637.094726562 403.731445312 607.853515625 364.890625 564.112304688 c 0
 326.049804688 520.370117188 303.495117188 462.489257812 302.5 404 c 0
 301.438476562 341.594726562 325.053710938 279.100585938 367.120117188 232.9921875 c 0
 409.1875 186.883789062 469.258789062 157.651367188 531.5 153 c 1
 580.5 0 l 1
 480.80078125 9.4873046875 385.194335938 57.0234375 317.454101562 130.788085938 c 0
 249.71484375 204.553710938 210.477539062 303.85546875 209.5 404 c 0
 208.509765625 505.478515625 246.854492188 606.838867188 314.762695312 682.251953125 c 0
 382.671875 757.666015625 479.473632812 806.38671875 580.5 816 c 1
  Spiro
    580.5 816 v
    516.5 645 v
    302.5 404 o
    531.5 153 v
    580.5 0 v
    209.5 404 o
    0 0 z
  EndSpiro
EndSplineSet
EndChar

StartChar: uniE01D
Encoding: 57373 57373 29
Width: 700
VWidth: 0
InSpiro: 1
Flags: HW
LayerCount: 2
Fore
SplineSet
270.922851562 610 m 1
 576.922851562 625 l 1
 594.922851562 520 l 1
 273.922851562 520 l 1
 270.922851562 610 l 1
  Spiro
    270.923 610 v
    576.923 625 v
    594.923 520 v
    273.923 520 v
    0 0 z
  EndSpiro
360.598632812 369.6640625 m 1
 336.28125 369.18359375 312.096679688 362.771484375 290.7578125 351.100585938 c 0
 269.418945312 339.428710938 250.928710938 322.501953125 237.71875 302.080078125 c 0
 224.266601562 281.282226562 216.350585938 256.797851562 215.970703125 232.032226562 c 0
 215.590820312 207.265625 222.92578125 182.291992188 237.430664062 162.213867188 c 0
 251.934570312 142.135742188 273.604492188 127.25390625 297.670898438 121.393554688 c 0
 321.737304688 115.534179688 347.817382812 118.826171875 369.922851562 130 c 0
 388.625 139.453125 404.403320312 154.288085938 415.956054688 171.770507812 c 0
 427.508789062 189.25390625 434.928710938 209.267578125 439.122070312 229.798828125 c 0
 447.509765625 270.862304688 443.7265625 313.365234375 438.922851562 355 c 0
 431.401367188 420.194335938 423.422851562 485.388671875 411.922851562 550 c 0
 396.758789062 635.1953125 369.336914062 718.732421875 324.922851562 793 c 1
 453.922851562 820 l 1
 470.798828125 713.350585938 493.704101562 607.7734375 514.19921875 501.759765625 c 0
 525.338867188 444.138671875 535.270507812 386.056640625 537.34765625 327.405273438 c 0
 539.424804688 268.754882812 533.17578125 209.012695312 511.126953125 154.624023438 c 0
 493.256835938 110.543945312 464.666992188 70.32421875 426.479492188 41.9658203125 c 0
 388.29296875 13.607421875 340.529296875 -2.201171875 293.014648438 0 c 0
 252.109375 1.89453125 211.92578125 17.10546875 180.051757812 42.8134765625 c 0
 148.177734375 68.521484375 124.821289062 104.42578125 113.430664062 143.759765625 c 0
 102.0390625 183.092773438 102.495117188 225.612304688 113.596679688 265.028320312 c 0
 124.698242188 304.444335938 146.2734375 340.741210938 174.922851562 370 c 0
 219.059570312 415.075195312 280.025390625 443.1328125 342.922851562 448 c 1
 360.598632812 369.6640625 l 1
  Spiro
    360.599 369.664 v
    237.719 302.08 o
    369.923 130 o
    438.923 355 o
    411.923 550 o
    324.923 793 v
    453.923 820 v
    514.199 501.76 o
    511.127 154.624 o
    293.015 0 o
    174.923 370 o
    342.923 448 v
    0 0 z
  EndSpiro
EndSplineSet
EndChar

StartChar: uniE01E
Encoding: 57374 57374 30
Width: 700
VWidth: 0
InSpiro: 1
Flags: HW
LayerCount: 2
Fore
SplineSet
254.9375 299 m 1
 503.9375 308 l 1
 509.9375 230 l 1
 260.9375 212 l 1
 254.9375 299 l 1
  Spiro
    254.937 299 v
    503.937 308 v
    509.937 230 v
    260.937 212 v
    0 0 z
  EndSpiro
479.903320312 794.624023438 m 1
 464.54296875 741.375976562 l 1
 446.3828125 755.055664062 424.543945312 763.803710938 401.961914062 766.4453125 c 0
 379.379882812 769.086914062 356.112304688 765.615234375 335.28515625 756.497070312 c 0
 314.45703125 747.37890625 296.124023438 732.63671875 282.747070312 714.251953125 c 0
 269.37109375 695.8671875 260.986328125 673.88671875 258.71875 651.263671875 c 0
 254.452148438 608.68359375 273.040039062 564.485351562 306.456054688 537.751953125 c 0
 339.873046875 511.018554688 387.073242188 502.5859375 427.678710938 516.095703125 c 1
 430.750976562 0 l 1
 350.87890625 0 l 1
 365.9375 437 l 1
 313.940429688 441.469726562 264.223632812 468.153320312 231.7578125 509.015625 c 0
 199.29296875 549.876953125 184.538085938 604.337890625 191.9375 656 c 0
 200.848632812 718.216796875 242.323242188 774.838867188 298.955078125 802.100585938 c 0
 355.586914062 829.362304688 425.712890625 826.46484375 479.903320312 794.624023438 c 1
  Spiro
    479.902 794.624 v
    464.542 741.376 v
    258.719 651.264 o
    427.678 516.096 v
    430.75 0 v
    350.878 0 v
    365.937 437 v
    191.937 656 o
    0 0 z
  EndSpiro
EndSplineSet
EndChar

StartChar: uniE01F
Encoding: 57375 57375 31
Width: 700
VWidth: 0
InSpiro: 1
Flags: HW
LayerCount: 2
Fore
SplineSet
714.502929688 454 m 1
 380.502929688 450 l 1
 258.502929688 580 l 1
 696.502929688 552 l 1
 714.502929688 454 l 1
  Spiro
    714.503 454 v
    380.503 450 v
    258.503 580 v
    696.503 552 v
    0 0 z
  EndSpiro
470.161132812 260.095703125 m 0
 463.538085938 194.151367188 438.84375 129.096679688 394.825195312 79.5498046875 c 0
 372.81640625 54.7763671875 346.000976562 34.1474609375 315.942382812 20.1982421875 c 0
 285.8828125 6.2490234375 252.62890625 -0.8896484375 219.502929688 0 c 0
 185.640625 0.9091796875 152.094726562 10.2119140625 122.36328125 26.4453125 c 0
 92.6318359375 42.6787109375 66.7646484375 65.6943359375 46.27734375 92.6708984375 c 0
 5.302734375 146.624023438 -14.10546875 215.251953125 -14.4970703125 283 c 0
 -14.9228515625 356.844726562 7.0810546875 431.9375 53.45703125 489.403320312 c 0
 76.6455078125 518.13671875 105.947265625 542.102539062 139.328125 557.883789062 c 0
 172.708984375 573.665039062 210.090820312 581.060546875 246.928710938 578.559570312 c 0
 283.01953125 576.110351562 318.344726562 564.19140625 348.888671875 544.8125 c 0
 379.432617188 525.432617188 405.15625 498.78125 424.5859375 468.268554688 c 0
 463.444335938 407.243164062 477.389648438 332.081054688 470.161132812 260.095703125 c 0
  Spiro
    470.161 260.096 o
    219.503 0 o
    -14.4969 283 o
    246.929 578.56 o
    0 0 z
  EndSpiro
351.502929688 455 m 0
 318.615234375 475.317382812 278.170898438 482.1015625 239.947265625 476.325195312 c 0
 201.723632812 470.549804688 165.743164062 453.08203125 135.502929688 429 c 0
 86.30078125 389.817382812 50.408203125 332.215820312 43.4736328125 269.702148438 c 0
 40.005859375 238.444335938 44.158203125 206.182617188 56.8359375 177.401367188 c 0
 69.5126953125 148.62109375 90.80859375 123.626953125 117.502929688 107 c 0
 137.978515625 94.2470703125 161.438476562 86.41796875 185.426757812 83.87890625 c 0
 209.415039062 81.3388671875 233.865234375 84.0234375 256.969726562 90.958984375 c 0
 303.177734375 104.828125 343.651367188 135.099609375 373.502929688 173 c 0
 406.48828125 214.879882812 427.418945312 267.486328125 425.80078125 320.772460938 c 0
 424.991210938 347.415039062 418.368164062 373.977539062 405.672851562 397.415039062 c 0
 392.977539062 420.852539062 374.1796875 440.991210938 351.502929688 455 c 0
  Spiro
    351.503 455 o
    135.503 429 o
    117.503 107 o
    373.503 173 o
    0 0 z
  EndSpiro
EndSplineSet
EndChar

StartChar: uniE020
Encoding: 57376 57376 32
Width: 700
VWidth: 0
Flags: HW
LayerCount: 2
Fore
SplineSet
269.553710938 523 m 29
 256.553710938 471 l 25
 585.553710938 428 l 25
 588.553710938 511 l 25
 269.553710938 523 l 29
128.553710938 584 m 1
 174.553710938 571 l 1
 160.553710938 602 162.553710938 639 177.553710938 669 c 0
 192.553710938 699 221.553710938 721 254.553710938 728 c 0
 273.553710938 732 294.553710938 732 313.553710938 727 c 0
 332.553710938 722 350.553710938 712 365.553710938 700 c 0
 395.553710938 675 414.553710938 639 423.553710938 601 c 0
 432.553710938 563 431.553710938 522 425.553710938 483 c 0
 419.553710938 444 409.553710938 407 399.553710938 369 c 0
 383.553710938 309 367.553710938 248 362.553710938 186 c 0
 357.553710938 124 360.553710938 61 374.553710938 0 c 1
 420.553710938 0 l 1
 423.553710938 104 438.553710938 207 457.553710938 310 c 0
 476.553710938 412 499.553710938 516 478.553710938 618 c 0
 468.553710938 669 445.553710938 718 409.553710938 755 c 0
 373.553710938 792 322.553710938 815 270.553710938 814 c 0
 243.553710938 813 216.553710938 806 192.553710938 793 c 0
 168.553710938 780 148.553710938 761 134.553710938 738 c 0
 120.553710938 715 112.553710938 689 111.553710938 662 c 0
 110.553710938 635 116.553710938 608 128.553710938 584 c 1
EndSplineSet
EndChar

StartChar: uniE021
Encoding: 57377 57377 33
Width: 700
VWidth: 0
Flags: HW
LayerCount: 2
Fore
SplineSet
199 463 m 1
 187 411 l 1
 513 395 l 5
 504 454 l 1
 199 463 l 1
295 812 m 25
 292 0 l 25
 409 0 l 25
 357 812 l 25
 295 812 l 25
EndSplineSet
EndChar

StartChar: uniE022
Encoding: 57378 57378 34
Width: 700
VWidth: 0
Flags: HW
LayerCount: 2
Fore
SplineSet
103.953125 440 m 29
 456.953125 410 l 25
 435.953125 339 l 25
 140.953125 354 l 25
 103.953125 440 l 29
577.953125 584 m 1
 531.953125 571 l 1
 545.953125 602 544.953125 639 529.953125 669 c 0
 514.953125 699 484.953125 721 451.953125 728 c 0
 432.953125 732 412.953125 732 393.953125 727 c 0
 374.953125 722 356.953125 712 341.953125 700 c 0
 311.953125 675 291.953125 639 282.953125 601 c 0
 273.953125 563 274.953125 522 280.953125 483 c 0
 286.953125 444 297.953125 407 307.953125 369 c 0
 323.953125 309 338.953125 248 343.953125 186 c 0
 348.953125 124 345.953125 61 331.953125 0 c 1
 285.953125 0 l 1
 282.953125 104 267.953125 207 248.953125 310 c 0
 229.953125 412 206.953125 516 227.953125 618 c 0
 237.953125 669 261.953125 718 297.953125 755 c 0
 333.953125 792 384.953125 815 436.953125 814 c 0
 463.953125 813 489.953125 806 513.953125 793 c 0
 537.953125 780 557.953125 761 571.953125 738 c 0
 585.953125 715 594.953125 689 595.953125 662 c 0
 596.953125 635 589.953125 608 577.953125 584 c 1
EndSplineSet
EndChar

StartChar: uniE023
Encoding: 57379 57379 35
Width: 700
VWidth: 0
Flags: HW
LayerCount: 2
Fore
SplineSet
329 472 m 1
 374 376 l 1
 755 364 l 1
 771 407 l 1
 329 472 l 1
771 407 m 1
 640 413 l 1
 630 128 126 219 -5 342 c 1
 -71 281 l 1
 81 121 738 40 771 407 c 1
EndSplineSet
EndChar

StartChar: uniE024
Encoding: 57380 57380 36
Width: 700
VWidth: 0
InSpiro: 1
Flags: HW
LayerCount: 2
Fore
SplineSet
320.81640625 117.759765625 m 1
 326.959960938 44.0322265625 l 1
 750.896484375 39.935546875 l 1
 693.551757812 113.6640625 l 1
 320.81640625 117.759765625 l 1
  Spiro
    326.964 44.032 v
    750.9 39.936 v
    693.556 113.664 v
    320.82 117.76 v
    0 0 z
  EndSpiro
-54.9921875 67.583984375 m 1
 43.3125 21.50390625 l 1
 73.06640625 82.130859375 117.561523438 135.59765625 172.3359375 175.103515625 c 0
 242.797851562 225.924804688 332.252929688 252.978515625 418.095703125 239.616210938 c 0
 469.696289062 231.583984375 519.084960938 208.991210938 558.225585938 174.420898438 c 0
 597.366210938 139.849609375 626 93.5126953125 639.280273438 43.0078125 c 1
 754.9921875 37.8876953125 l 1
 712.654296875 157.874023438 610.389648438 254.513671875 488.751953125 291.83984375 c 0
 376.80078125 326.193359375 251.962890625 311.48046875 147.759765625 258.047851562 c 0
 64.171875 215.185546875 -6.779296875 148.205078125 -54.9921875 67.583984375 c 1
  Spiro
    -54.988 67.584 v
    43.316 21.504 v
    172.34 175.104 o
    418.1 239.616 o
    639.284 43.008 v
    754.996 37.888 v
    488.756 291.84 o
    147.764 258.048 o
    0 0 z
  EndSpiro
-54.9921875 95.232421875 m 1048
  Spiro
    -54.988 95.232 {
    0 0 z
  EndSpiro
EndSplineSet
EndChar

StartChar: uniE025
Encoding: 57381 57381 37
Width: 700
VWidth: 0
Flags: HW
LayerCount: 2
Fore
SplineSet
192 433 m 29
 539 433 l 25
 508 335 l 25
 192 402 l 25
 192 433 l 29
183 17 m 1
 161 70 l 1
 238 112 296 185 321 269 c 0
 338 327 340 390 330 449 c 0
 320 508 298 565 268 617 c 0
 243 660 213 701 178 737 c 1
 239 803 l 1
 276 745 308 684 335 621 c 0
 359 563 379 502 388 439 c 0
 397 376 396 312 379 251 c 0
 351 150 279 60 183 17 c 1
EndSplineSet
EndChar

StartChar: uniE026
Encoding: 57382 57382 38
Width: 700
VWidth: 0
Flags: HW
LayerCount: 2
Fore
SplineSet
155.313476562 590 m 29
 481.313476562 599 l 25
 459.313476562 522 l 25
 97.3134765625 516 l 25
 155.313476562 590 l 29
446.313476562 765 m 1
 501.313476562 725 l 1
 403.313476562 637 315.313476562 536 262.313476562 415 c 0
 235.313476562 353 219.313476562 284 231.313476562 218 c 0
 237.313476562 185 249.313476562 153 269.313476562 126 c 0
 289.313476562 99 317.313476562 77 348.313476562 65 c 0
 389.313476562 49 437.313476562 49 477.313476562 69 c 0
 517.313476562 89 548.313476562 126 560.313476562 169 c 0
 569.313476562 203 567.313476562 239 554.313476562 271 c 0
 541.313476562 303 516.313476562 331 486.313476562 349 c 0
 456.313476562 367 421.313476562 374 386.313476562 370 c 0
 351.313476562 366 318.313476562 350 293.313476562 326 c 1
 283.313476562 384 l 1
 321.313476562 407 367.313476562 418 411.313476562 414 c 0
 455.313476562 410 498.313476562 392 531.313476562 363 c 0
 564.313476562 334 589.313476562 293 598.313476562 250 c 0
 607.313476562 207 602.313476562 161 584.313476562 120 c 0
 558.313476562 63 506.313476562 19 446.313476562 4 c 0
 386.313476562 -11 319.313476562 1 268.313476562 37 c 0
 215.313476562 74 178.313476562 134 164.313476562 197 c 0
 150.313476562 260 155.313476562 327 173.313476562 390 c 0
 215.313476562 542 320.313476562 671 446.313476562 765 c 1
EndSplineSet
EndChar

StartChar: uniE027
Encoding: 57383 57383 39
Width: 700
VWidth: 0
Flags: HW
LayerCount: 2
Fore
SplineSet
284.5 361 m 1
 677.5 365 l 1
 680.5 269 l 1
 274.5 263 l 1
 284.5 361 l 1
19.5 58 m 1
 287.5 780 l 1
 640.5 31 l 1
 517.5 15 l 1
 290.5 642 l 1
 164.5 0 l 1
 19.5 58 l 1
EndSplineSet
EndChar

StartChar: uniE028
Encoding: 57384 57384 40
Width: 700
VWidth: 0
Flags: HW
LayerCount: 2
Fore
SplineSet
281.5 496 m 29
 681.5 481 l 1
 662.5 401 l 25
 260.5 416 l 1
 281.5 496 l 29
18.5 802 m 1
 550.5 814 l 1
 539.5 622 518.5 430 488.5 240 c 0
 475.5 160 461.5 80 445.5 0 c 1
 378.5 18 l 1
 414.5 164 439.5 314 454.5 464 c 0
 463.5 555 469.5 646 470.5 737 c 1
 43.5 713 l 1
 18.5 802 l 1
EndSplineSet
EndChar

StartChar: uniE029
Encoding: 57385 57385 41
Width: 700
VWidth: 0
InSpiro: 1
Flags: HW
LayerCount: 2
Fore
SplineSet
248.915039062 299 m 25
 540.915039062 308 l 25
 546.915039062 250 l 25
 285.915039062 250 l 25
 248.915039062 299 l 25
  Spiro
    248.916 299 v
    540.916 308 v
    546.916 250 v
    285.916 250 v
    0 0 z
  EndSpiro
32.9150390625 648 m 1
 65.9150390625 664 102.915039062 673 138.915039062 673 c 0
 174.915039062 673 210.915039062 665 244.915039062 651 c 0
 300.915039062 628 349.915039062 590 406.915039062 567 c 0
 434.915039062 556 466.915039062 549 496.915039062 552 c 0
 526.915039062 555 556.915039062 567 576.915039062 590 c 0
 590.915039062 606 599.915039062 626 601.915039062 647 c 0
 603.915039062 668 598.915039062 689 586.915039062 707 c 0
 574.915039062 725 557.915039062 738 537.915039062 744 c 0
 517.915039062 750 495.915039062 750 475.915039062 743 c 0
 443.915039062 732 416.915039062 707 402.915039062 676 c 0
 388.915039062 645 384.915039062 612 386.915039062 578 c 0
 391.915039062 479 436.915039062 385 449.915039062 287 c 0
 462.915039062 189 445.915039062 85 395.915039062 0 c 1
 333.915039062 0 l 1
 358.915039062 50 374.915039062 105 379.915039062 161 c 0
 384.915039062 217 378.915039062 274 367.915039062 329 c 0
 353.915039062 397 332.915039062 462 323.915039062 531 c 0
 318.915039062 565 317.915039062 601 322.915039062 635 c 0
 327.915039062 669 339.915039062 702 358.915039062 731 c 0
 376.915039062 758 400.915039062 781 428.915039062 796 c 0
 456.915039062 811 489.915039062 818 521.915039062 817 c 0
 552.915039062 816 583.915039062 806 608.915039062 788 c 0
 633.915039062 770 654.915039062 743 664.915039062 714 c 0
 674.915039062 685 675.915039062 652 666.915039062 622 c 0
 657.915039062 592 638.915039062 566 613.915039062 547 c 0
 587.915039062 527 556.915039062 515 523.915039062 511 c 0
 490.915039062 507 457.915039062 510 425.915039062 516 c 0
 361.915039062 529 299.915039062 554 235.915039062 568 c 0
 166.915039062 583 93.9150390625 582 26.9150390625 562 c 1
 32.9150390625 648 l 1
  Spiro
    32.9159 648 v
    67.0293 661.581 o
    102.804 670.08 o
    138.916 673 o
    174.806 670.413 o
    210.359 662.916 o
    244.916 651 o
    299.085 624.141 o
    352.08 593.859 o
    406.916 567 o
    435.997 557.563 o
    466.502 552.108 o
    496.916 552 o
    526.517 558.065 o
    553.979 570.608 o
    576.916 590 o
    589.165 607.204 o
    597.663 626.464 o
    601.916 647 o
    601.585 667.868 o
    596.575 688.131 o
    586.916 707 o
    573.339 723.245 o
    556.824 735.751 o
    537.916 744 o
    517.418 747.961 o
    496.414 747.701 o
    475.916 743 o
    445.907 727.649 o
    420.931 704.678 o
    402.916 676 o
    392.109 644.403 o
    387.062 611.596 o
    386.916 578 o
    402.559 480.43 o
    428.942 383.904 o
    449.916 287 o
    452.812 188.025 o
    434.999 90.3125 o
    395.916 0 v
    333.916 0 v
    355.823 51.4656 o
    371.336 105.536 o
    379.916 161 o
    381.473 217.166 o
    377.02 273.5 o
    367.916 329 o
    352.303 396.192 o
    336.197 463.141 o
    323.916 531 o
    320.326 565.484 o
    319.843 600.516 o
    322.916 635 o
    330.24 668.523 o
    342.264 700.809 o
    358.916 731 o
    378.82 756.495 o
    402.349 778.501 o
    428.916 796 o
    458.33 808.324 o
    489.837 815.338 o
    521.916 817 o
    552.663 813.044 o
    582.167 803.284 o
    608.916 788 o
    632.302 767.282 o
    651.525 742.047 o
    664.916 714 o
    671.875 683.957 o
    672.617 652.71 o
    666.916 622 o
    654.746 593.471 o
    636.747 568.199 o
    613.916 547 o
    586.389 529.681 o
    556.107 517.657 o
    523.916 511 o
    490.986 509.185 o
    458.18 511.152 o
    425.916 516 o
    362.498 532.13 o
    299.334 551.204 o
    235.916 568 o
    166.024 577.552 o
    95.4763 575.77 o
    26.9159 562 v
    0 0 z
  EndSpiro
EndSplineSet
EndChar

StartChar: uniE02A
Encoding: 57386 57386 42
Width: 700
VWidth: 0
InSpiro: 1
Flags: HW
LayerCount: 2
Fore
SplineSet
228 2 m 1
 528 338 l 1
 450 386 l 1
 150 77 l 1
 228 2 l 1
  Spiro
    228 2 v
    528 338 v
    450 386 v
    150 77 v
    0 0 z
  EndSpiro
550 2 m 1
 486 173 l 1
 424.037109375 172.940429688 362.377929688 197.318359375 317.208007812 239.734375 c 0
 272.038085938 282.149414062 243.833984375 342.15625 240 404 c 0
 235.697265625 473.413085938 262.47265625 544.174804688 311.649414062 593.350585938 c 0
 360.825195312 642.52734375 431.586914062 669.302734375 501 665 c 1
 550 818 l 1
 444.532226562 815.911132812 340.530273438 771.01171875 266.681640625 695.685546875 c 0
 192.83203125 620.358398438 150 515.48828125 150 410 c 0
 150 304.51171875 192.83203125 199.641601562 266.681640625 124.314453125 c 0
 340.530273438 48.98828125 444.532226562 4.0888671875 550 2 c 1
  Spiro
    550 2 v
    486 173 v
    240 404 o
    501 665 v
    550 818 v
    150 410 o
    0 0 z
  EndSpiro
EndSplineSet
EndChar

StartChar: uniE02B
Encoding: 57387 57387 43
Width: 700
VWidth: 0
InSpiro: 1
Flags: HW
LayerCount: 2
Fore
SplineSet
590.196289062 645.120117188 m 1
 499.194335938 542.483398438 390.880859375 456.982421875 292.88671875 361 c 0
 269.063476562 337.666015625 246.0546875 313.287109375 226.88671875 286 c 0
 206.74609375 257.328125 190.7265625 224.00390625 191.138671875 188.967773438 c 0
 191.344726562 171.44921875 195.877929688 153.8515625 205.163085938 138.994140625 c 0
 214.447265625 124.137695312 228.517578125 112.244140625 244.88671875 106 c 0
 258.9765625 100.625 274.59765625 99.4541015625 289.389648438 102.389648438 c 0
 304.181640625 105.325195312 318.0703125 112.282226562 329.7265625 121.850585938 c 0
 353.0390625 140.986328125 366.874023438 169.666015625 373.88671875 199 c 0
 390.032226562 266.538085938 379.0390625 337.459960938 367.88671875 406 c 0
 345.166992188 545.635742188 308.931640625 682.685546875 274.88671875 820 c 1
 385.88671875 823 l 1
 407.274414062 715.859375 431.20703125 609.21875 450.932617188 501.759765625 c 0
 461.512695312 444.12109375 470.578125 386.01953125 472.580078125 327.452148438 c 0
 474.581054688 268.883789062 469.30078125 209.163085938 447.860351562 154.624023438 c 0
 430.041015625 109.295898438 400.087890625 67.7099609375 358.693359375 42.0439453125 c 0
 337.99609375 29.2109375 314.665039062 20.5185546875 290.520507812 17.34375 c 0
 266.375 14.16796875 241.483398438 16.568359375 218.484375 24.576171875 c 0
 188.12109375 35.1484375 161.372070312 55.556640625 142.65234375 81.697265625 c 0
 123.932617188 107.836914062 113.239257812 139.377929688 110.52734375 171.415039062 c 0
 105.102539062 235.489257812 130.771484375 298.795898438 166.88671875 352 c 0
 214.88671875 422.712890625 279.454101562 480.384765625 343.7890625 536.64453125 c 0
 408.125 592.904296875 473.734375 647.6875 538.88671875 703 c 1
 590.196289062 645.120117188 l 1
  Spiro
    590.197 645.12 v
    292.887 361 o
    226.887 286 o
    244.887 106 o
    373.887 199 o
    367.887 406 o
    274.887 820 v
    385.887 823 v
    450.933 501.76 o
    447.861 154.624 o
    218.485 24.576 o
    166.887 352 o
    538.887 703 v
    0 0 z
  EndSpiro
EndSplineSet
EndChar

StartChar: uniE02C
Encoding: 57388 57388 44
Width: 700
VWidth: 0
InSpiro: 1
Flags: HW
LayerCount: 2
Fore
SplineSet
233.294921875 227 m 1
 485.294921875 416 l 1
 516.123046875 348.16015625 l 1
 272.294921875 152 l 1
 233.294921875 227 l 1
  Spiro
    233.294 227 v
    485.294 416 v
    516.123 348.16 v
    272.294 152 v
    0 0 z
  EndSpiro
27.67578125 254.975585938 m 1024
  Spiro
    27.6755 254.976 {
    0 0 z
  EndSpiro
479.258789062 794.624023438 m 1
 449.294921875 713 l 1
 433.98046875 725.803710938 415.38671875 734.651367188 395.79296875 738.4609375 c 0
 376.198242188 742.270507812 355.64453125 741.033203125 336.6484375 734.900390625 c 0
 317.65234375 728.767578125 300.254882812 717.751953125 286.587890625 703.204101562 c 0
 272.919921875 688.655273438 263.01171875 670.60546875 258.075195312 651.263671875 c 0
 252.466796875 629.2890625 253.330078125 605.705078125 260.53125 584.19921875 c 0
 267.731445312 562.693359375 281.243164062 543.34375 298.952148438 529.176757812 c 0
 316.661132812 515.008789062 338.505859375 506.07421875 361.067382812 503.770507812 c 0
 383.62890625 501.466796875 406.827148438 505.80078125 427.03515625 516.095703125 c 1
 430.107421875 0 l 1
 350.235351562 0 l 1
 362.294921875 431 l 1
 310.127929688 435.638671875 260.265625 462.2265625 227.344726562 502.958984375 c 0
 194.424804688 543.690429688 178.887695312 598.021484375 185.294921875 650 c 0
 193.20703125 714.194335938 235.16015625 773.194335938 293.196289062 801.747070312 c 0
 351.233398438 830.299804688 423.575195312 827.530273438 479.258789062 794.624023438 c 1
  Spiro
    479.259 794.624 v
    449.294 713 v
    258.075 651.264 o
    427.035 516.096 v
    430.107 0 v
    350.235 0 v
    362.294 431 v
    185.294 650 o
    0 0 z
  EndSpiro
EndSplineSet
EndChar

StartChar: uniE02D
Encoding: 57389 57389 45
Width: 700
VWidth: 0
Flags: HW
LayerCount: 2
Fore
SplineSet
220.19140625 413 m 1
 555.19140625 662 l 1
 675.19140625 600 l 1
 300.19140625 388 l 1
 220.19140625 413 l 1
281.19140625 579 m 0
 322.19140625 581 364.19140625 573 402.19140625 556 c 0
 440.19140625 539 473.19140625 514 499.19140625 482 c 0
 552.19140625 418 575.19140625 332 564.19140625 250 c 0
 556.19140625 187 529.19140625 127 485.19140625 81 c 0
 441.19140625 35 381.19140625 6 318.19140625 0 c 0
 277.19140625 -4 236.19140625 2 198.19140625 18 c 0
 160.19140625 34 126.19140625 58 99.19140625 89 c 0
 45.19140625 150 18.19140625 235 26.19140625 317 c 0
 32.19140625 383 60.19140625 447 106.19140625 495 c 0
 152.19140625 543 215.19140625 575 281.19140625 579 c 0
275.19140625 508 m 0
 232.19140625 502 191.19140625 481 160.19140625 451 c 0
 129.19140625 421 106.19140625 382 97.19140625 339 c 0
 83.19140625 275 98.19140625 206 137.19140625 154 c 0
 157.19140625 128 182.19140625 106 211.19140625 92 c 0
 240.19140625 78 273.19140625 71 306.19140625 72 c 0
 353.19140625 73 399.19140625 92 435.19140625 123 c 0
 471.19140625 154 496.19140625 198 506.19140625 244 c 0
 521.19140625 311 503.19140625 384 459.19140625 436 c 0
 437.19140625 462 408.19140625 483 376.19140625 496 c 0
 344.19140625 509 309.19140625 513 275.19140625 508 c 0
EndSplineSet
EndChar

StartChar: uniE02E
Encoding: 57390 57390 46
Width: 700
VWidth: 0
Flags: HW
LayerCount: 2
Fore
SplineSet
155.553710938 308 m 1
 232.553710938 305 l 1
 634.553710938 643 l 5
 550.553710938 646 l 1
 155.553710938 308 l 1
82.5537109375 584 m 1
 128.553710938 571 l 1
 114.553710938 602 116.553710938 639 131.553710938 669 c 0
 146.553710938 699 175.553710938 721 208.553710938 728 c 0
 227.553710938 732 248.553710938 732 267.553710938 727 c 0
 286.553710938 722 304.553710938 712 319.553710938 700 c 0
 349.553710938 675 368.553710938 639 377.553710938 601 c 0
 386.553710938 563 385.553710938 522 379.553710938 483 c 0
 373.553710938 444 363.553710938 407 353.553710938 369 c 0
 337.553710938 309 321.553710938 248 316.553710938 186 c 0
 311.553710938 124 314.553710938 61 328.553710938 0 c 1
 374.553710938 0 l 1
 377.553710938 104 392.553710938 207 411.553710938 310 c 0
 430.553710938 412 453.553710938 516 432.553710938 618 c 0
 422.553710938 669 399.553710938 718 363.553710938 755 c 0
 327.553710938 792 276.553710938 815 224.553710938 814 c 0
 197.553710938 813 170.553710938 806 146.553710938 793 c 0
 122.553710938 780 102.553710938 761 88.5537109375 738 c 0
 74.5537109375 715 66.5537109375 689 65.5537109375 662 c 0
 64.5537109375 635 70.5537109375 608 82.5537109375 584 c 1
EndSplineSet
EndChar

StartChar: uniE02F
Encoding: 57391 57391 47
Width: 700
VWidth: 0
Flags: HW
LayerCount: 2
Fore
SplineSet
195 223 m 5
 606 570 l 1
 490 558 l 1
 94 229 l 1
 195 223 l 5
297 812 m 25
 294 0 l 25
 411 0 l 25
 359 812 l 25
 297 812 l 25
EndSplineSet
EndChar

StartChar: uniE030
Encoding: 57392 57392 48
Width: 700
VWidth: 0
Flags: HW
LayerCount: 2
Fore
SplineSet
190.953125 142 m 5
 123.953125 145 l 1
 350.953125 407 l 1
 430.953125 379 l 1
 190.953125 142 l 5
557.953125 584 m 1
 511.953125 571 l 1
 525.953125 602 524.953125 639 509.953125 669 c 0
 494.953125 699 464.953125 721 431.953125 728 c 0
 412.953125 732 392.953125 732 373.953125 727 c 0
 354.953125 722 336.953125 712 321.953125 700 c 0
 291.953125 675 271.953125 639 262.953125 601 c 0
 253.953125 563 254.953125 522 260.953125 483 c 0
 266.953125 444 277.953125 407 287.953125 369 c 0
 303.953125 309 318.953125 248 323.953125 186 c 0
 328.953125 124 325.953125 61 311.953125 0 c 1
 265.953125 0 l 1
 262.953125 104 247.953125 207 228.953125 310 c 0
 209.953125 412 186.953125 516 207.953125 618 c 0
 217.953125 669 241.953125 718 277.953125 755 c 0
 313.953125 792 364.953125 815 416.953125 814 c 0
 443.953125 813 469.953125 806 493.953125 793 c 0
 517.953125 780 537.953125 761 551.953125 738 c 0
 565.953125 715 574.953125 689 575.953125 662 c 0
 576.953125 635 569.953125 608 557.953125 584 c 1
EndSplineSet
EndChar

StartChar: uniE031
Encoding: 57393 57393 49
Width: 700
VWidth: 0
InSpiro: 1
Flags: HW
LayerCount: 2
Fore
SplineSet
7.9833984375 138.240234375 m 1
 42.7998046875 103.423828125 l 1
 229.16796875 377.856445312 l 1
 175.919921875 412.671875 l 1
 7.9833984375 138.240234375 l 1
  Spiro
    42.8 103.424 v
    229.168 377.856 v
    175.92 412.672 v
    7.9838 138.24 v
    0 0 z
  EndSpiro
753.456054688 309.248046875 m 1
 679.727539062 358.400390625 l 1
 556.84765625 129.024414062 143.151367188 219.135742188 12.080078125 342.015625 c 1
 -53.4560546875 280.576171875 l 1
 98.095703125 120.83203125 642.86328125 63.48828125 753.456054688 309.248046875 c 1
  Spiro
    753.456 309.248 v
    679.728 358.4 v
    481.4 224.949 o
    215.866 240.748 o
    12.0798 342.016 v
    -53.4562 280.576 v
    198.202 162.468 o
    529.09 157.155 o
    0 0 z
  EndSpiro
EndSplineSet
EndChar

StartChar: uniE032
Encoding: 57394 57394 50
Width: 700
VWidth: 0
InSpiro: 1
Flags: HW
LayerCount: 2
Fore
SplineSet
522.032226562 101.375976562 m 1
 556.848632812 70.65625 l 1
 737.072265625 250.879882812 l 1
 685.872070312 310.272460938 l 1
 522.032226562 101.375976562 l 1
  Spiro
    556.848 70.656 v
    737.072 250.88 v
    685.872 310.272 v
    522.032 101.376 v
    0 0 z
  EndSpiro
-46.2880859375 67.583984375 m 1
 52.0166015625 21.50390625 l 1
 81.7705078125 82.130859375 126.265625 135.59765625 181.040039062 175.103515625 c 0
 251.501953125 225.924804688 340.95703125 252.978515625 426.799804688 239.616210938 c 0
 478.400390625 231.583984375 527.7890625 208.991210938 566.9296875 174.420898438 c 0
 606.0703125 139.849609375 634.704101562 93.5126953125 647.984375 43.0078125 c 1
 746.288085938 98.3037109375 l 1
 691.5546875 190.924804688 600.618164062 261.3125 497.456054688 291.83984375 c 0
 385.263671875 325.040039062 260.763671875 311.06640625 156.463867188 258.047851562 c 0
 72.693359375 215.46484375 1.5966796875 148.442382812 -46.2880859375 67.583984375 c 1
  Spiro
    -46.2878 67.584 v
    52.016 21.504 v
    181.04 175.104 o
    426.8 239.616 o
    647.984 43.008 v
    746.288 98.304 v
    497.456 291.84 o
    156.464 258.048 o
    0 0 z
  EndSpiro
-46.2880859375 95.232421875 m 1048
  Spiro
    -46.2878 95.232 {
    0 0 z
  EndSpiro
EndSplineSet
EndChar

StartChar: uniE033
Encoding: 57395 57395 51
Width: 700
VWidth: 0
Flags: HW
LayerCount: 2
Fore
SplineSet
296 467 m 5
 244 510 l 1
 416 734 l 1
 487 670 l 1
 296 467 l 5
235 17 m 1
 213 70 l 1
 290 112 348 185 373 269 c 0
 390 327 392 390 382 449 c 0
 372 508 350 565 320 617 c 0
 295 660 265 701 230 737 c 1
 291 803 l 1
 328 745 360 684 387 621 c 0
 411 563 431 502 440 439 c 0
 449 376 448 312 431 251 c 0
 403 150 331 60 235 17 c 1
EndSplineSet
EndChar

StartChar: uniE034
Encoding: 57396 57396 52
Width: 700
VWidth: 0
InSpiro: 1
Flags: HW
LayerCount: 2
Fore
SplineSet
345.12109375 242.688476562 m 1
 566.3046875 427.0078125 l 1
 609.3125 405.50390625 l 1
 381.985351562 199.6796875 l 1
 345.12109375 242.688476562 l 1
  Spiro
    345.12 242.688 v
    566.304 427.008 v
    609.312 405.504 v
    381.984 199.68 v
    0 0 z
  EndSpiro
380.9609375 764.927734375 m 1
 436.256835938 724.9921875 l 1
 338.275390625 637.149414062 249.373046875 535.28515625 196.640625 414.719726562 c 0
 169.661132812 353.033203125 153.973632812 284.385742188 165.487304688 218.048828125 c 0
 171.244140625 184.880859375 183.958984375 152.733398438 203.950195312 125.646484375 c 0
 223.94140625 98.560546875 251.293945312 76.74609375 282.657226562 64.51171875 c 0
 324.055664062 48.3623046875 372.186523438 49.7978515625 412.096679688 69.3388671875 c 0
 452.006835938 88.8798828125 482.810546875 126.122070312 494.625 168.959960938 c 0
 503.875976562 202.504882812 501.663085938 239.086914062 488.518554688 271.305664062 c 0
 475.373046875 303.524414062 451.380859375 331.19921875 421.374023438 348.819335938 c 0
 391.3671875 366.439453125 355.521484375 373.908203125 320.97265625 369.754882812 c 0
 286.423828125 365.6015625 253.372070312 349.849609375 228.384765625 325.631835938 c 1
 218.14453125 384 l 1
 255.994140625 407.29296875 301.384765625 418.10546875 345.669921875 414.375976562 c 0
 389.955078125 410.646484375 432.899414062 392.39453125 466.314453125 363.092773438 c 0
 499.728515625 333.791015625 523.434570312 293.59375 532.884765625 250.16796875 c 0
 542.3359375 206.7421875 537.477539062 160.318359375 519.201171875 119.807617188 c 0
 493.5859375 63.03125 441.1953125 19.083984375 380.862304688 3.6025390625 c 0
 320.530273438 -11.8798828125 253.954101562 1.3466796875 202.78515625 36.8642578125 c 0
 149.302734375 73.9873046875 113.442382812 133.548828125 98.9765625 197.025390625 c 0
 84.5107421875 260.501953125 89.9990234375 327.451171875 107.552734375 390.143554688 c 0
 149.974609375 541.651367188 254.573242188 671.225585938 380.9609375 764.927734375 c 1
  Spiro
    380.96 764.928 v
    436.256 724.992 v
    196.64 414.72 o
    282.656 64.512 o
    494.624 168.96 o
    228.384 325.632 v
    218.144 384 v
    519.2 119.808 o
    202.784 36.864 o
    107.551 390.144 o
    0 0 z
  EndSpiro
EndSplineSet
EndChar

StartChar: uniE035
Encoding: 57397 57397 53
Width: 700
VWidth: 0
InSpiro: 1
Flags: HW
LayerCount: 2
Fore
SplineSet
267.056640625 109.568359375 m 1
 589.615234375 462.84765625 l 1
 641.83984375 407.551757812 l 1
 365.359375 51.2001953125 l 1
 267.056640625 109.568359375 l 1
  Spiro
    267.055 109.568 v
    589.615 462.848 v
    641.839 407.552 v
    365.359 51.2 v
    0 0 z
  EndSpiro
39.728515625 58.3681640625 m 1
 306.9921875 780.288085938 l 1
 660.271484375 30.7197265625 l 1
 537.392578125 15.3603515625 l 1
 310.064453125 642.047851562 l 1
 184.111328125 0 l 1
 39.728515625 58.3681640625 l 1
  Spiro
    39.7266 58.368 v
    306.991 780.288 v
    660.271 30.72 v
    537.391 15.36 v
    310.063 642.048 v
    184.111 0 v
    0 0 z
  EndSpiro
EndSplineSet
EndChar

StartChar: uniE036
Encoding: 57398 57398 54
Width: 700
VWidth: 0
InSpiro: 1
Flags: HW
LayerCount: 2
Fore
SplineSet
280.3671875 210.944335938 m 1
 624.431640625 505.856445312 l 1
 685.87109375 464.896484375 l 1
 332.591796875 155.6484375 l 1
 280.3671875 210.944335938 l 1
  Spiro
    280.368 210.944 v
    624.432 505.856 v
    685.872 464.896 v
    332.592 155.648 v
    0 0 z
  EndSpiro
14.12890625 801.791992188 m 1
 545.583984375 814.080078125 l 1
 534.693359375 621.727539062 514.1796875 429.920898438 484.14453125 239.616210938 c 0
 471.4921875 159.454101562 457.15234375 79.55859375 441.13671875 0 c 1
 373.552734375 18.431640625 l 1
 409.708984375 164.83203125 435.39453125 313.81640625 450.3515625 463.872070312 c 0
 459.408203125 554.729492188 464.53515625 645.979492188 465.712890625 737.280273438 c 1
 38.703125 712.704101562 l 1
 14.12890625 801.791992188 l 1
  Spiro
    14.1284 801.792 v
    545.584 814.08 v
    484.144 239.616 o
    441.136 0 v
    373.552 18.432 v
    450.352 463.872 o
    465.712 737.28 v
    38.7044 712.704 v
    0 0 z
  EndSpiro
EndSplineSet
EndChar

StartChar: uniE037
Encoding: 57399 57399 55
Width: 700
VWidth: 0
Flags: HW
LayerCount: 2
Fore
SplineSet
245.915039062 158 m 1
 519.915039062 376 l 1
 568.915039062 345 l 1
 279.915039062 109 l 1
 245.915039062 158 l 1
32.9150390625 648 m 1
 65.9150390625 664 102.915039062 673 138.915039062 673 c 0
 174.915039062 673 210.915039062 665 244.915039062 651 c 0
 300.915039062 628 349.915039062 590 406.915039062 567 c 0
 434.915039062 556 466.915039062 549 496.915039062 552 c 0
 526.915039062 555 556.915039062 567 576.915039062 590 c 0
 590.915039062 606 599.915039062 626 601.915039062 647 c 0
 603.915039062 668 598.915039062 689 586.915039062 707 c 0
 574.915039062 725 557.915039062 738 537.915039062 744 c 0
 517.915039062 750 495.915039062 750 475.915039062 743 c 0
 443.915039062 732 416.915039062 707 402.915039062 676 c 0
 388.915039062 645 384.915039062 612 386.915039062 578 c 0
 391.915039062 479 436.915039062 385 449.915039062 287 c 0
 462.915039062 189 445.915039062 85 395.915039062 0 c 1
 333.915039062 0 l 1
 358.915039062 50 374.915039062 105 379.915039062 161 c 0
 384.915039062 217 378.915039062 274 367.915039062 329 c 0
 353.915039062 397 332.915039062 462 323.915039062 531 c 0
 318.915039062 565 317.915039062 601 322.915039062 635 c 0
 327.915039062 669 339.915039062 702 358.915039062 731 c 0
 376.915039062 758 400.915039062 781 428.915039062 796 c 0
 456.915039062 811 489.915039062 818 521.915039062 817 c 0
 552.915039062 816 583.915039062 806 608.915039062 788 c 0
 633.915039062 770 654.915039062 743 664.915039062 714 c 0
 674.915039062 685 675.915039062 652 666.915039062 622 c 0
 657.915039062 592 638.915039062 566 613.915039062 547 c 0
 587.915039062 527 556.915039062 515 523.915039062 511 c 0
 490.915039062 507 457.915039062 510 425.915039062 516 c 0
 361.915039062 529 299.915039062 554 235.915039062 568 c 0
 166.915039062 583 93.9150390625 582 26.9150390625 562 c 1
 32.9150390625 648 l 1
EndSplineSet
EndChar

StartChar: uniE038
Encoding: 57400 57400 56
Width: 700
VWidth: 0
InSpiro: 1
Flags: HW
LayerCount: 2
Fore
SplineSet
154.5 158 m 1
 445.5 416 l 1
 400.5 491 l 1
 107.5 224 l 1
 154.5 158 l 1
  Spiro
    154.5 158 v
    445.5 416 v
    400.5 491 v
    107.5 224 v
    0 0 z
  EndSpiro
344.5 0 m 1
 559.5 329 l 1
 481.5 377 l 1
 259.5 47 l 1
 344.5 0 l 1
  Spiro
    344.5 0 v
    559.5 329 v
    481.5 377 v
    259.5 47 v
    0 0 z
  EndSpiro
592.5 2 m 1
 528.5 173 l 1
 466.307617188 172.04296875 404.083007812 196.126953125 358.741210938 238.705078125 c 0
 313.3984375 281.282226562 285.453125 341.870117188 282.5 404 c 0
 279.787109375 461.083984375 298.05859375 518.932617188 333.069335938 564.100585938 c 0
 368.079101562 609.26953125 419.54296875 641.390625 475.5 653 c 1
 553.5 815 l 1
 455.233398438 803.627929688 361.724609375 755.065429688 295.903320312 681.220703125 c 0
 230.081054688 607.376953125 192.544921875 508.921875 192.5 410 c 0
 192.452148438 304.499023438 235.268554688 199.59765625 309.126953125 124.26171875 c 0
 382.985351562 48.92578125 487.018554688 4.041015625 592.5 2 c 1
  Spiro
    592.5 2 v
    528.5 173 v
    282.5 404 o
    475.5 653 v
    553.5 815 v
    192.5 410 o
    0 0 z
  EndSpiro
EndSplineSet
EndChar

StartChar: uniE039
Encoding: 57401 57401 57
Width: 700
VWidth: 0
InSpiro: 1
Flags: HW
LayerCount: 2
Fore
SplineSet
250.680664062 513 m 1
 211.680664062 583 l 1
 514.680664062 790 l 1
 559.680664062 739 l 1
 250.680664062 513 l 1
  Spiro
    250.681 513 v
    211.681 583 v
    514.681 790 v
    559.681 739 v
    0 0 z
  EndSpiro
592.680664062 577 m 1
 551.12109375 535.486328125 508.200195312 495.322265625 463.680664062 457 c 0
 406.965820312 408.1796875 344.850585938 366.077148438 286.680664062 319 c 0
 268.880859375 304.594726562 251.7421875 289.200195312 237.243164062 271.4765625 c 0
 222.744140625 253.752929688 210.93359375 233.491210938 205.189453125 211.32421875 c 0
 199.4453125 189.158203125 200.115234375 165.047851562 209.055664062 143.966796875 c 0
 217.99609375 122.885742188 235.370117188 105.376953125 256.680664062 97 c 0
 275.16015625 89.7353515625 296.16015625 89.3974609375 315.0625 95.478515625 c 0
 333.96484375 101.559570312 350.62109375 113.809570312 363.157226562 129.208007812 c 0
 375.694335938 144.60546875 384.232421875 163.006835938 389.555664062 182.135742188 c 0
 394.87890625 201.265625 397.10546875 221.15234375 397.680664062 241 c 0
 399.87109375 316.478515625 385.067382812 391.353515625 373.680664062 466 c 0
 355.625976562 584.361328125 333.91796875 702.1796875 307.680664062 819 c 1
 397.680664062 816 l 1
 417.895507812 657.446289062 460.0078125 502.067382812 475.680664062 343 c 0
 482.494140625 273.85546875 481.412109375 202.182617188 456.388671875 137.366210938 c 0
 443.877929688 104.95703125 425.271484375 74.6787109375 400.448242188 50.375 c 0
 375.625 26.072265625 344.498046875 7.9541015625 310.680664062 0 c 0
 282.586914062 -6.6083984375 252.788085938 -6.1279296875 225.069335938 1.9111328125 c 0
 197.3515625 9.9501953125 171.857421875 25.5478515625 152.134765625 46.6171875 c 0
 132.411132812 67.6875 118.55078125 94.1044921875 111.953125 122.201171875 c 0
 105.356445312 150.297851562 105.984375 179.926757812 112.680664062 208 c 0
 121.383789062 244.481445312 140.115234375 278.0625 163.650390625 307.264648438 c 0
 187.185546875 336.465820312 215.36328125 361.609375 244.680664062 385 c 0
 345.33203125 465.303710938 453.618164062 537.063476562 541.680664062 631 c 1
 592.680664062 577 l 1
  Spiro
    592.681 577 v
    463.681 457 o
    286.681 319 o
    256.681 97 o
    397.681 241 o
    373.681 466 o
    307.681 819 v
    397.681 816 v
    475.681 343 o
    310.681 0 o
    112.681 208 o
    244.681 385 o
    541.681 631 v
    0 0 z
  EndSpiro
EndSplineSet
EndChar

StartChar: uniE03A
Encoding: 57402 57402 58
Width: 700
VWidth: 0
InSpiro: 1
Flags: HW
LayerCount: 2
Fore
SplineSet
222.751953125 108.543945312 m 0
 496.159179688 281.599609375 l 0
 525.546875 212 l 0
 237.546875 47 l 0
 222.751953125 108.543945312 l 0
  Spiro
    222.751 108.544 ]
    496.159 281.6 ]
    525.547 212 ]
    237.547 47 ]
    0 0 z
  EndSpiro
195.546875 254 m 1
 468.546875 431 l 1
 504.546875 359 l 1
 216.607421875 173.055664062 l 1
 195.546875 254 l 1
  Spiro
    195.547 254 v
    468.547 431 v
    504.547 359 v
    216.607 173.056 v
    0 0 z
  EndSpiro
447.0078125 794.624023438 m 1
 426.546875 716 l 1
 409.872070312 728.9140625 389.595703125 737.126953125 368.633789062 739.458007812 c 0
 347.671875 741.788085938 326.086914062 738.229492188 306.982421875 729.293945312 c 0
 287.877929688 720.357421875 271.310546875 706.071289062 259.6640625 688.487304688 c 0
 248.016601562 670.904296875 241.323242188 650.077148438 240.546875 629 c 0
 239.166015625 591.489257812 257.421875 553.797851562 287.709960938 531.625976562 c 0
 317.998046875 509.455078125 359.444335938 503.443359375 394.783203125 516.095703125 c 1
 397.85546875 0 l 1
 317.983398438 0 l 1
 321.546875 431 l 1
 275.141601562 442.375976562 233.369140625 471.663085938 206.85546875 511.411132812 c 0
 180.341796875 551.159179688 169.348632812 600.9765625 176.671875 648.192382812 c 0
 185.754882812 706.754882812 223.432617188 760.193359375 275.541992188 788.418945312 c 0
 327.651367188 816.64453125 392.994140625 819.009765625 447.0078125 794.624023438 c 1
  Spiro
    447.007 794.624 v
    426.547 716 v
    240.547 629 o
    394.783 516.096 v
    397.855 0 v
    317.983 0 v
    321.547 431 v
    176.671 648.192 o
    0 0 z
  EndSpiro
EndSplineSet
EndChar

StartChar: uniE03B
Encoding: 57403 57403 59
Width: 700
VWidth: 0
Flags: HW
LayerCount: 2
Fore
SplineSet
319.69140625 334 m 1
 655.69140625 594 l 1
 719.69140625 569 l 5
 381.69140625 317 l 1
 319.69140625 334 l 1
175.69140625 413 m 1
 510.69140625 662 l 1
 581.69140625 637 l 1
 255.69140625 388 l 1
 175.69140625 413 l 1
236.69140625 579 m 0
 277.69140625 581 319.69140625 573 357.69140625 556 c 0
 395.69140625 539 428.69140625 514 454.69140625 482 c 0
 507.69140625 418 530.69140625 332 519.69140625 250 c 0
 511.69140625 187 484.69140625 127 440.69140625 81 c 0
 396.69140625 35 336.69140625 6 273.69140625 0 c 0
 232.69140625 -4 191.69140625 2 153.69140625 18 c 0
 115.69140625 34 81.69140625 58 54.69140625 89 c 0
 0.69140625 150 -26.30859375 235 -18.30859375 317 c 0
 -12.30859375 383 15.69140625 447 61.69140625 495 c 0
 107.69140625 543 170.69140625 575 236.69140625 579 c 0
230.69140625 508 m 0
 187.69140625 502 146.69140625 481 115.69140625 451 c 0
 84.69140625 421 61.69140625 382 52.69140625 339 c 0
 38.69140625 275 53.69140625 206 92.69140625 154 c 0
 112.69140625 128 137.69140625 106 166.69140625 92 c 0
 195.69140625 78 228.69140625 71 261.69140625 72 c 0
 308.69140625 73 354.69140625 92 390.69140625 123 c 0
 426.69140625 154 451.69140625 198 461.69140625 244 c 0
 476.69140625 311 458.69140625 384 414.69140625 436 c 0
 392.69140625 462 363.69140625 483 331.69140625 496 c 0
 299.69140625 509 264.69140625 513 230.69140625 508 c 0
EndSplineSet
EndChar

StartChar: uniE03C
Encoding: 57404 57404 60
Width: 700
VWidth: 0
Flags: HW
LayerCount: 2
Fore
SplineSet
147.053710938 161 m 5
 227.053710938 164 l 1
 635.053710938 523 l 1
 568.053710938 517 l 5
 147.053710938 161 l 5
155.053710938 308 m 1
 232.053710938 305 l 1
 634.053710938 643 l 1
 550.053710938 646 l 1
 155.053710938 308 l 1
82.0537109375 584 m 1
 128.053710938 571 l 1
 114.053710938 602 116.053710938 639 131.053710938 669 c 0
 146.053710938 699 175.053710938 721 208.053710938 728 c 0
 227.053710938 732 248.053710938 732 267.053710938 727 c 0
 286.053710938 722 304.053710938 712 319.053710938 700 c 0
 349.053710938 675 368.053710938 639 377.053710938 601 c 0
 386.053710938 563 385.053710938 522 379.053710938 483 c 0
 373.053710938 444 363.053710938 407 353.053710938 369 c 0
 337.053710938 309 321.053710938 248 316.053710938 186 c 0
 311.053710938 124 314.053710938 61 328.053710938 0 c 1
 374.053710938 0 l 1
 377.053710938 104 392.053710938 207 411.053710938 310 c 0
 430.053710938 412 453.053710938 516 432.053710938 618 c 0
 422.053710938 669 399.053710938 718 363.053710938 755 c 0
 327.053710938 792 276.053710938 815 224.053710938 814 c 0
 197.053710938 813 170.053710938 806 146.053710938 793 c 0
 122.053710938 780 102.053710938 761 88.0537109375 738 c 0
 74.0537109375 715 66.0537109375 689 65.0537109375 662 c 0
 64.0537109375 635 70.0537109375 608 82.0537109375 584 c 1
EndSplineSet
EndChar

StartChar: uniE03D
Encoding: 57405 57405 61
Width: 700
VWidth: 0
Flags: HW
LayerCount: 2
Fore
SplineSet
195 145 m 5
 606 493 l 5
 490 480 l 5
 94 152 l 5
 195 145 l 5
195 325 m 1
 606 672 l 1
 490 659 l 1
 94 331 l 1
 195 325 l 1
297 812 m 25
 294 0 l 25
 411 0 l 25
 359 812 l 25
 297 812 l 25
EndSplineSet
EndChar

StartChar: uniE03E
Encoding: 57406 57406 62
Width: 700
VWidth: 0
InSpiro: 1
Flags: HW
LayerCount: 2
Fore
SplineSet
118.986328125 308.223632812 m 1
 358.602539062 563.200195312 l 1
 389.322265625 517.120117188 l 1
 152.778320312 262.143554688 l 1
 118.986328125 308.223632812 l 1
  Spiro
    118.986 308.224 v
    358.602 563.2 v
    389.322 517.12 v
    152.778 262.144 v
    0 0 z
  EndSpiro
174.282226562 123.904296875 m 1
 140.490234375 163.83984375 l 1
 389.322265625 421.887695312 l 1
 436.426757812 378.879882812 l 1
 174.282226562 123.904296875 l 1
  Spiro
    174.282 123.904 v
    140.49 163.84 v
    389.322 421.888 v
    436.426 378.88 v
    0 0 z
  EndSpiro
563.40234375 583.6796875 m 1
 517.322265625 571.391601562 l 1
 531.323242188 601.953125 530.422851562 638.913085938 515.041992188 668.803710938 c 0
 499.661132812 698.694335938 470.270507812 720.79296875 437.450195312 728.064453125 c 0
 418.28125 732.310546875 398.106445312 731.725585938 379.11328125 726.748046875 c 0
 360.122070312 721.771484375 342.338867188 712.448242188 327.102539062 700.064453125 c 0
 296.631835938 675.293945312 277.037109375 638.778320312 268.262695312 600.501953125 c 0
 259.48828125 562.225585938 260.838867188 522.2265625 266.755859375 483.407226562 c 0
 272.672851562 444.586914062 282.9765625 406.58984375 293.06640625 368.639648438 c 0
 309.06640625 308.458984375 324.043945312 247.708007812 329.521484375 185.677734375 c 0
 335 123.6484375 331.340820312 60.74609375 317.642578125 0 c 1
 271.5625 0 l 1
 269.057617188 104.249023438 253.859375 207.768554688 234.698242188 310.272460938 c 0
 215.654296875 412.149414062 192.651367188 516.908203125 213.501953125 618.4296875 c 0
 223.926757812 669.192382812 246.388671875 718.321289062 282.854492188 755.140625 c 0
 319.319335938 791.959960938 370.282226562 815.247070312 422.090820312 814.080078125 c 0
 449.041992188 813.47265625 475.866210938 806.389648438 499.422851562 793.28125 c 0
 522.977539062 780.171875 543.18359375 761.053710938 557.412109375 738.158203125 c 0
 571.639648438 715.260742188 579.840820312 688.64453125 580.896484375 661.708984375 c 0
 581.953125 634.772460938 575.860351562 607.5859375 563.40234375 583.6796875 c 1
  Spiro
    563.402 583.68 v
    517.322 571.392 v
    437.45 728.064 o
    293.066 368.64 o
    317.642 0 v
    271.562 0 v
    234.698 310.272 o
    422.09 814.08 o
    0 0 z
  EndSpiro
EndSplineSet
EndChar

StartChar: uniE03F
Encoding: 57407 57407 63
Width: 700
VWidth: 0
Flags: HW
LayerCount: 2
Fore
SplineSet
92.5 96 m 29
 129.5 61 l 25
 305.5 342 l 25
 272.5 352 l 25
 92.5 96 l 29
8.5 138 m 1
 43.5 103 l 1
 229.5 378 l 1
 176.5 413 l 1
 8.5 138 l 1
753.5 309 m 1
 680.5 358 l 1
 557.5 129 143.5 219 12.5 342 c 1
 -53.5 281 l 1
 98.5 121 642.5 63 753.5 309 c 1
EndSplineSet
EndChar

StartChar: uniE040
Encoding: 57408 57408 64
Width: 700
VWidth: 0
Flags: HW
LayerCount: 2
Fore
SplineSet
450.5 162 m 5
 479.5 139 l 29
 618.5 352 l 1
 554.5 383 l 25
 450.5 162 l 5
522.5 101 m 1
 548.5 84 l 1
 737.5 251 l 1
 686.5 310 l 1
 522.5 101 l 1
-46.5 68 m 1
 52.5 22 l 1
 82.5 83 126.5 135 181.5 175 c 0
 251.5 226 340.5 253 426.5 240 c 0
 478.5 232 528.5 209 567.5 174 c 0
 606.5 139 635.5 94 648.5 43 c 1
 746.5 98 l 1
 691.5 191 600.5 261 497.5 292 c 0
 385.5 325 260.5 311 156.5 258 c 0
 72.5 215 1.5 149 -46.5 68 c 1
-46.5 95 m 1048
EndSplineSet
EndChar

StartChar: uniE041
Encoding: 57409 57409 65
Width: 700
VWidth: 0
Flags: HW
LayerCount: 2
Fore
SplineSet
267 378 m 1
 499 568 l 1
 523 485 l 1
 278 341 l 1
 267 378 l 1
235 467 m 5
 208 510 l 1
 419 746 l 1
 468 664 l 1
 235 467 l 5
199 17 m 1
 177 70 l 1
 254 112 312 185 337 269 c 0
 354 327 356 390 346 449 c 0
 336 508 314 565 284 617 c 0
 259 660 229 701 194 737 c 1
 255 803 l 1
 292 745 324 684 351 621 c 0
 375 563 395 502 404 439 c 0
 413 376 412 312 395 251 c 0
 367 150 295 60 199 17 c 1
EndSplineSet
EndChar

StartChar: uniE042
Encoding: 57410 57410 66
Width: 700
VWidth: 0
Flags: HW
LayerCount: 2
Fore
SplineSet
358.533203125 190 m 1
 582.533203125 399 l 1
 638.533203125 362 l 5
 404.533203125 166 l 1
 358.533203125 190 l 1
283.533203125 261 m 1
 469.533203125 485 l 1
 533.533203125 442 l 1
 329.533203125 230 l 1
 283.533203125 261 l 1
351.533203125 765 m 1
 406.533203125 725 l 1
 308.533203125 637 220.533203125 536 167.533203125 415 c 0
 140.533203125 353 124.533203125 284 136.533203125 218 c 0
 142.533203125 185 154.533203125 153 174.533203125 126 c 0
 194.533203125 99 222.533203125 77 253.533203125 65 c 0
 294.533203125 49 342.533203125 49 382.533203125 69 c 0
 422.533203125 89 453.533203125 126 465.533203125 169 c 0
 474.533203125 203 472.533203125 239 459.533203125 271 c 0
 446.533203125 303 421.533203125 331 391.533203125 349 c 0
 361.533203125 367 326.533203125 374 291.533203125 370 c 0
 256.533203125 366 223.533203125 350 198.533203125 326 c 1
 188.533203125 384 l 1
 226.533203125 407 272.533203125 418 316.533203125 414 c 0
 360.533203125 410 403.533203125 392 436.533203125 363 c 0
 469.533203125 334 494.533203125 293 503.533203125 250 c 0
 512.533203125 207 507.533203125 161 489.533203125 120 c 0
 463.533203125 63 411.533203125 19 351.533203125 4 c 0
 291.533203125 -11 224.533203125 1 173.533203125 37 c 0
 120.533203125 74 83.533203125 134 69.533203125 197 c 0
 55.533203125 260 60.533203125 327 78.533203125 390 c 0
 120.533203125 542 225.533203125 671 351.533203125 765 c 1
EndSplineSet
EndChar

StartChar: uniE043
Encoding: 57411 57411 67
Width: 700
VWidth: 0
Flags: HW
LayerCount: 2
Fore
SplineSet
356.5 272 m 1
 316.5 371 l 1
 503.5 620 l 1
 565.5 552 l 5
 356.5 272 l 1
337.5 116 m 1
 580.5 414 l 1
 654.5 340 l 1
 420.5 30 l 1
 337.5 116 l 1
39.5 58 m 1
 307.5 780 l 1
 660.5 31 l 1
 537.5 15 l 1
 310.5 642 l 1
 184.5 0 l 1
 39.5 58 l 1
EndSplineSet
EndChar

StartChar: uniE044
Encoding: 57412 57412 68
Width: 700
VWidth: 0
InSpiro: 1
Flags: HW
LayerCount: 2
Fore
SplineSet
254.767578125 403.456054688 m 1
 632.623046875 704.51171875 l 1
 681.775390625 659.456054688 l 1
 303.919921875 348.16015625 l 1
 254.767578125 403.456054688 l 1
  Spiro
    254.768 403.456 v
    632.624 704.512 v
    681.776 659.456 v
    303.92 348.16 v
    0 0 z
  EndSpiro
280.3671875 210.944335938 m 1
 624.431640625 505.856445312 l 1
 685.87109375 464.896484375 l 1
 332.591796875 155.6484375 l 1
 280.3671875 210.944335938 l 1
  Spiro
    280.368 210.944 v
    624.432 505.856 v
    685.872 464.896 v
    332.592 155.648 v
    0 0 z
  EndSpiro
14.12890625 801.791992188 m 1
 545.583984375 814.080078125 l 1
 534.693359375 621.727539062 514.1796875 429.920898438 484.14453125 239.616210938 c 0
 471.4921875 159.454101562 457.15234375 79.55859375 441.13671875 0 c 1
 373.552734375 18.431640625 l 1
 409.708984375 164.83203125 435.39453125 313.81640625 450.3515625 463.872070312 c 0
 459.408203125 554.729492188 464.53515625 645.979492188 465.712890625 737.280273438 c 1
 38.703125 712.704101562 l 1
 14.12890625 801.791992188 l 1
  Spiro
    14.1284 801.792 v
    545.584 814.08 v
    484.144 239.616 o
    441.136 0 v
    373.552 18.432 v
    450.352 463.872 o
    465.712 737.28 v
    38.7044 712.704 v
    0 0 z
  EndSpiro
EndSplineSet
EndChar

StartChar: uniE045
Encoding: 57413 57413 69
Width: 700
VWidth: 0
InSpiro: 1
Flags: HW
LayerCount: 2
Fore
SplineSet
276.750976562 249.856445312 m 1
 236.814453125 292.864257812 l 1
 497.934570312 480.255859375 l 1
 556.302734375 455.6796875 l 1
 276.750976562 249.856445312 l 1
  Spiro
    236.817 292.864 v
    497.937 480.256 v
    556.305 455.68 v
    276.753 249.856 v
    0 0 z
  EndSpiro
246.03125 157.696289062 m 1
 519.438476562 375.807617188 l 1
 568.590820312 345.087890625 l 1
 279.823242188 108.543945312 l 1
 246.03125 157.696289062 l 1
  Spiro
    246.033 157.696 v
    519.441 375.808 v
    568.593 345.088 v
    279.825 108.544 v
    0 0 z
  EndSpiro
33.0390625 648.192382812 m 1
 65.6025390625 664.627929688 102.060546875 673.1875 138.537109375 673.30078125 c 0
 175.014648438 673.413085938 211.223632812 665.021484375 245.006835938 651.263671875 c 0
 301.405273438 628.296875 350.536132812 589.93359375 407.064453125 567.290039062 c 0
 435.329101562 555.967773438 465.869140625 548.997070312 496.204101562 551.6171875 c 0
 526.5390625 554.23828125 556.479492188 567.133789062 576.783203125 589.82421875 c 0
 590.815429688 605.506835938 599.965820312 625.620117188 601.926757812 646.573242188 c 0
 603.888671875 667.526367188 598.572265625 689.1171875 586.952148438 706.663085938 c 0
 575.33203125 724.208984375 557.538085938 737.524414062 537.502929688 743.96484375 c 0
 517.46875 750.404296875 495.403320312 749.984375 475.407226562 743.423828125 c 0
 443.310546875 732.89453125 417.569335938 706.958007812 403.111328125 676.428710938 c 0
 388.653320312 645.899414062 384.584960938 611.271484375 386.319335938 577.536132812 c 0
 391.413085938 478.439453125 436.3125 385.447265625 449.27734375 287.0703125 c 0
 462.2421875 188.692382812 445.978515625 85.44921875 395.53515625 0 c 1
 334.094726562 0 l 1
 359.026367188 50.3017578125 374.219726562 105.338867188 379.225585938 161.255859375 c 0
 384.23046875 217.172851562 378.84765625 273.643554688 367.88671875 328.704101562 c 0
 354.380859375 396.549804688 332.357421875 462.70703125 323.201171875 531.275390625 c 0
 318.623046875 565.55859375 317.483398438 600.4921875 322.67578125 634.688476562 c 0
 327.868164062 668.884765625 339.5625 702.3046875 358.670898438 731.135742188 c 0
 376.40625 757.89453125 400.512695312 780.52734375 428.786132812 795.733398438 c 0
 457.05859375 810.939453125 489.418945312 818.633789062 521.487304688 817.15234375 c 0
 552.66015625 815.711914062 583.482421875 805.537109375 608.96875 787.530273438 c 0
 634.455078125 769.522460938 654.416015625 743.66015625 664.80859375 714.235351562 c 0
 675.201171875 684.810546875 675.860351562 652.03515625 666.61328125 622.23046875 c 0
 657.366210938 592.42578125 638.342773438 565.892578125 613.646484375 546.81640625 c 0
 587.680664062 526.758789062 555.836914062 514.982421875 523.3046875 510.716796875 c 0
 490.772460938 506.452148438 457.62109375 509.411132812 425.458984375 515.904296875 c 0
 361.135742188 528.891601562 299.991210938 554.737304688 235.791015625 568.3203125 c 0
 166.883789062 582.8984375 94.2861328125 582.649414062 26.89453125 562.17578125 c 1
 33.0390625 648.192382812 l 1
  Spiro
    33.0417 648.192 v
    245.009 651.264 o
    576.785 589.824 o
    475.409 743.424 o
    386.321 577.536 o
    395.537 0 v
    334.097 0 v
    367.889 328.704 o
    358.673 731.136 o
    521.489 817.152 o
    613.649 546.816 o
    235.793 568.32 o
    26.8977 562.176 v
    0 0 z
  EndSpiro
EndSplineSet
EndChar

StartChar: uniE062
Encoding: 57442 57442 70
Width: 700
VWidth: 0
Flags: HW
LayerCount: 2
Fore
SplineSet
550 358 m 1
 150 674 l 1
 150 524 l 1
 550 220 l 1
 550 358 l 1
  Spiro
    550 358 v
    150 674 v
    150 524 v
    550 220 v
    0 0 z
  EndSpiro
EndSplineSet
EndChar

StartChar: uniE070
Encoding: 57456 57456 71
Width: 700
VWidth: 0
Flags: HW
LayerCount: 2
Fore
SplineSet
198 464 m 1
 550 488 l 1
 498 348 l 1
 150 360 l 1
 198 464 l 1
EndSplineSet
EndChar

StartChar: uniE07E
Encoding: 57470 57470 72
Width: 700
VWidth: 0
Flags: HW
LayerCount: 2
Fore
SplineSet
150 344 m 1
 550 635 l 1
 550 464 l 1
 150 203 l 1
 150 344 l 1
  Spiro
    150 344 v
    550 635 v
    550 464 v
    150 203 v
    0 0 z
  EndSpiro
EndSplineSet
EndChar

StartChar: uniE08C
Encoding: 57484 57484 73
Width: 700
VWidth: 0
Flags: HW
LayerCount: 2
Fore
SplineSet
150 236 m 1
 550 527 l 1
 550 356 l 1
 150 95 l 1
 150 236 l 1
  Spiro
    150 236 v
    550 527 v
    550 356 v
    150 95 v
    0 0 z
  EndSpiro
150 523 m 1
 550 814 l 1
 550 643 l 1
 150 382 l 1
 150 523 l 1
  Spiro
    150 523 v
    550 814 v
    550 643 v
    150 382 v
    0 0 z
  EndSpiro
EndSplineSet
EndChar

StartChar: uniE055
Encoding: 57429 57429 74
Width: 700
VWidth: 0
InSpiro: 1
Flags: HW
LayerCount: 2
Fore
SplineSet
100.1796875 744 m 1
 202.1796875 819 l 1
 236.3671875 796.217773438 265.0078125 765.19921875 285.09765625 729.36328125 c 0
 305.188476562 693.52734375 316.641601562 653.004882812 319.1796875 612 c 0
 322.17578125 563.6015625 312.568359375 515.016601562 296.0078125 469.44140625 c 0
 279.447265625 423.865234375 255.674804688 381.225585938 238.1796875 336 c 0
 227.056640625 307.245117188 218.809570312 276.813476562 219.76953125 245.997070312 c 0
 220.728515625 215.181640625 231.833007812 184.245117188 253.1796875 162 c 0
 265.418945312 149.24609375 280.709960938 139.484375 297.34765625 133.513671875 c 0
 313.985351562 127.543945312 331.8828125 125.333984375 349.530273438 126.349609375 c 0
 384.82421875 128.380859375 418.44921875 142.872070312 448.1796875 162 c 0
 482.25 183.919921875 512.283203125 211.844726562 538.1796875 243 c 1
 600.1796875 139 l 1
 568.139648438 95.7080078125 526.038085938 59.8603515625 478.04296875 35.4208984375 c 0
 430.048828125 10.98046875 375.99609375 -2.1552734375 322.1796875 0 c 0
 262.37890625 2.3955078125 202.500976562 25.029296875 160.325195312 67.4931640625 c 0
 139.23828125 88.7255859375 122.811523438 114.5703125 112.624023438 142.708007812 c 0
 102.436523438 170.844726562 98.546875 201.120117188 100.1796875 231 c 0
 102.624023438 275.712890625 117.334960938 318.815429688 134.317382812 360.249023438 c 0
 151.30078125 401.682617188 170.265625 442.571289062 181.1796875 486 c 0
 192.870117188 532.513671875 194.678710938 582.141601562 181.130859375 628.1484375 c 0
 167.58203125 674.155273438 138.869140625 715.657226562 100.1796875 744 c 1
  Spiro
    100.18 744 v
    202.18 819 v
    319.18 612 o
    238.18 336 o
    253.18 162 o
    448.18 162 o
    538.18 243 v
    600.18 139 v
    322.18 0 o
    100.18 231 o
    181.18 486 o
    0 0 z
  EndSpiro
EndSplineSet
EndChar

StartChar: uniE063
Encoding: 57443 57443 75
Width: 700
VWidth: 0
InSpiro: 1
Flags: HW
LayerCount: 2
Fore
SplineSet
125.32421875 776 m 1
 224.32421875 821 l 1
 259.350585938 799.431640625 288.541015625 768.525390625 308.21484375 732.400390625 c 0
 327.888671875 696.276367188 337.9296875 655.131835938 338.32421875 614 c 0
 338.802734375 564.221679688 325.080078125 515.140625 304.807617188 469.674804688 c 0
 284.534179688 424.209960938 257.458984375 381.956054688 238.32421875 336 c 0
 226.432617188 307.438476562 217.958007812 276.8671875 219.041992188 245.947265625 c 0
 220.125976562 215.028320312 231.66796875 184.094726562 253.32421875 162 c 0
 265.671875 149.40234375 281 139.790039062 297.629882812 133.907226562 c 0
 314.258789062 128.0234375 332.111328125 125.837890625 349.72265625 126.823242188 c 0
 384.947265625 128.794921875 418.576171875 143.03515625 448.32421875 162 c 0
 482.494140625 183.783203125 512.5703125 211.71484375 538.32421875 243 c 1
 600.32421875 139 l 1
 568.046875 95.9501953125 525.91015625 60.287109375 477.96484375 35.865234375 c 0
 430.020507812 11.4423828125 376.099609375 -1.8515625 322.32421875 0 c 0
 262.306640625 2.0673828125 202.03515625 24.373046875 159.583984375 66.8505859375 c 0
 138.359375 88.08984375 121.842773438 114.032226562 111.752929688 142.3125 c 0
 101.663085938 170.59375 98.064453125 201.05859375 100.32421875 231 c 0
 103.97265625 279.337890625 122.791015625 325.211914062 144.622070312 368.493164062 c 0
 166.453125 411.774414062 191.021484375 454.00390625 206.32421875 500 c 0
 222.657226562 549.08984375 227.579101562 602.82421875 214.002929688 652.747070312 c 0
 200.427734375 702.669921875 168.51171875 747.513671875 125.32421875 776 c 1
  Spiro
    125.325 776 v
    224.325 821 v
    338.325 614 o
    238.325 336 o
    253.325 162 o
    448.325 162 o
    538.325 243 v
    600.325 139 v
    322.325 0 o
    100.325 231 o
    206.325 500 o
    0 0 z
  EndSpiro
344.32421875 284 m 1
 100.32421875 524 l 1
 131.32421875 644 l 1
 422.32421875 380 l 1
 344.32421875 284 l 1
  Spiro
    344.325 284 v
    100.325 524 v
    131.325 644 v
    422.325 380 v
    0 0 z
  EndSpiro
EndSplineSet
EndChar

StartChar: uniE071
Encoding: 57457 57457 76
Width: 700
VWidth: 0
Flags: HW
LayerCount: 2
Fore
SplineSet
100.1796875 744 m 1
 202.1796875 819 l 1
 236.3671875 796.217773438 265.0078125 765.19921875 285.09765625 729.36328125 c 0
 305.188476562 693.52734375 316.641601562 653.004882812 319.1796875 612 c 0
 322.17578125 563.6015625 312.568359375 515.016601562 296.0078125 469.44140625 c 0
 279.447265625 423.865234375 255.674804688 381.225585938 238.1796875 336 c 0
 227.056640625 307.245117188 218.809570312 276.813476562 219.76953125 245.997070312 c 0
 220.728515625 215.181640625 231.833007812 184.245117188 253.1796875 162 c 0
 265.418945312 149.24609375 280.709960938 139.484375 297.34765625 133.513671875 c 0
 313.985351562 127.543945312 331.8828125 125.333984375 349.530273438 126.349609375 c 0
 384.82421875 128.380859375 418.44921875 142.872070312 448.1796875 162 c 0
 482.25 183.919921875 512.283203125 211.844726562 538.1796875 243 c 1
 600.1796875 139 l 1
 568.139648438 95.7080078125 526.038085938 59.8603515625 478.04296875 35.4208984375 c 0
 430.048828125 10.98046875 375.99609375 -2.1552734375 322.1796875 0 c 0
 262.37890625 2.3955078125 202.500976562 25.029296875 160.325195312 67.4931640625 c 0
 139.23828125 88.7255859375 122.811523438 114.5703125 112.624023438 142.708007812 c 0
 102.436523438 170.844726562 98.546875 201.120117188 100.1796875 231 c 0
 102.624023438 275.712890625 117.334960938 318.815429688 134.317382812 360.249023438 c 0
 151.30078125 401.682617188 170.265625 442.571289062 181.1796875 486 c 0
 192.870117188 532.513671875 194.678710938 582.141601562 181.130859375 628.1484375 c 0
 167.58203125 674.155273438 138.869140625 715.657226562 100.1796875 744 c 1
  Spiro
    100.18 744 v
    202.18 819 v
    319.18 612 o
    238.18 336 o
    253.18 162 o
    448.18 162 o
    538.18 243 v
    600.18 139 v
    322.18 0 o
    100.18 231 o
    181.18 486 o
    0 0 z
  EndSpiro
122.1796875 549 m 1
 455.1796875 585 l 1
 422.1796875 459 l 1
 100.1796875 460 l 1
 122.1796875 549 l 1
EndSplineSet
EndChar

StartChar: uniE07F
Encoding: 57471 57471 77
Width: 700
VWidth: 0
InSpiro: 1
Flags: HW
LayerCount: 2
Fore
SplineSet
100 744 m 1
 202 819 l 1
 236.661132812 781.395507812 268.76953125 741.290039062 296 698 c 0
 315.689453125 666.69921875 332.638671875 633.3828125 342.779296875 597.822265625 c 0
 352.919921875 562.260742188 355.59765625 524.552734375 350 488 c 0
 343.376953125 444.750976562 325.2734375 404.2890625 309.127929688 363.625 c 0
 301.0546875 343.291992188 293.614257812 322.614257812 289.140625 301.200195312 c 0
 284.666015625 279.786132812 283.247070312 257.551757812 287 236 c 0
 290.069335938 218.374023438 296.633789062 201.28125 306.815429688 186.5703125 c 0
 316.997070312 171.859375 330.809570312 159.60546875 346.86328125 151.70703125 c 0
 362.916015625 143.80859375 381.162109375 140.3359375 398.967773438 142.078125 c 0
 416.774414062 143.819335938 434.0546875 150.791992188 448 162 c 0
 468.377929688 178.377929688 481.149414062 203.87109375 482 230 c 1
 600 139 l 1
 557.764648438 65.748046875 481.681640625 12.12890625 398 0 c 0
 332.7734375 -9.4541015625 262.994140625 7.587890625 213.071289062 50.6171875 c 0
 188.110351562 72.1318359375 168.399414062 99.6748046875 156.01171875 130.2109375 c 0
 143.623046875 160.748046875 138.620117188 194.075195312 140 227 c 0
 142.306640625 282.05859375 162.33984375 334.6171875 182.510742188 385.899414062 c 0
 202.681640625 437.181640625 222.46875 489.915039062 224 545 c 0
 225.159179688 586.680664062 215.494140625 628.985351562 193.831054688 664.614257812 c 0
 172.168945312 700.243164062 138.7734375 728.662109375 100 744 c 1
  Spiro
    100 744 v
    202 819 v
    296 698 o
    350 488 o
    287 236 o
    448 162 o
    482 230 v
    600 139 v
    398 0 o
    140 227 o
    224 545 o
    0 0 z
  EndSpiro
100 554 m 1
 410 791 l 1
 470 689 l 1
 125 443 l 1
 100 554 l 1
  Spiro
    100 554 v
    410 791 v
    470 689 v
    125 443 v
    0 0 z
  EndSpiro
EndSplineSet
EndChar

StartChar: uniE08D
Encoding: 57485 57485 78
Width: 700
VWidth: 0
InSpiro: 1
Flags: HW
LayerCount: 2
Fore
SplineSet
170 461 m 1
 458 629 l 1
 515 536 l 1
 179 323 l 1
 170 461 l 1
  Spiro
    170 461 v
    458 629 v
    515 536 v
    179 323 v
    0 0 z
  EndSpiro
100 744 m 1
 202 819 l 1
 236.885742188 781.603515625 268.244140625 740.954101562 296 698 c 0
 340.614257812 628.955078125 383.286132812 556.274414062 401 476 c 0
 406.3828125 451.60546875 408.245117188 426.150390625 403.487304688 401.626953125 c 0
 398.729492188 377.103515625 386.956054688 354.220703125 371 335 c 0
 354.708984375 315.375976562 334.389648438 299.374023438 318.296875 279.586914062 c 0
 310.250976562 269.693359375 303.345703125 258.731445312 299.157226562 246.6875 c 0
 294.967773438 234.642578125 293.616210938 221.52734375 296 209 c 0
 298.91015625 193.706054688 307.46484375 179.625976562 319.454101562 169.6953125 c 0
 331.443359375 159.765625 346.553710938 153.94140625 362 152 c 0
 378.596679688 149.9140625 395.58984375 152.123046875 411.498046875 157.291015625 c 0
 427.407226562 162.458007812 442.303710938 170.565429688 455.654296875 180.643554688 c 0
 482.353515625 200.799804688 502.920898438 228.803710938 515 260 c 1
 600 139 l 1
 570.790039062 103.361328125 535.75390625 72.455078125 496.509765625 48.3037109375 c 0
 457.266601562 24.1513671875 413.616210938 6.5185546875 368 0 c 0
 337.629882812 -4.33984375 306.328125 -3.560546875 276.688476562 4.357421875 c 0
 247.048828125 12.2763671875 219.178710938 27.5966796875 197.893554688 49.6904296875 c 0
 176.608398438 71.7841796875 162.33203125 100.552734375 157.793945312 130.89453125 c 0
 153.254882812 161.235351562 158.473632812 192.568359375 170 221 c 0
 183.086914062 253.279296875 203.786132812 281.770507812 223.182617188 310.702148438 c 0
 242.579101562 339.6328125 260.540039062 370.211914062 269 404 c 0
 280.162109375 448.580078125 272.853515625 496.646484375 252.767578125 537.98046875 c 0
 232.681640625 579.314453125 202.310546875 614.604492188 173 650 c 0
 147.690429688 680.564453125 122.938476562 711.618164062 100 744 c 1
  Spiro
    100 744 v
    202 819 v
    296 698 o
    401 476 o
    371 335 o
    296 209 o
    362 152 o
    515 260 v
    600 139 v
    368 0 o
    170 221 o
    269 404 o
    173 650 o
    0 0 z
  EndSpiro
100 620 m 1
 368 830 l 1
 449 737 l 1
 149 518 l 1
 100 620 l 1
  Spiro
    100 620 v
    368 830 v
    449 737 v
    149 518 v
    0 0 z
  EndSpiro
EndSplineSet
EndChar
